/* XPM */
static char *result[] = {
/* columns rows colors chars-per-pixel */
"64 64 50 1 ",
"  c #8E553B",
". c #8E5A3A",
"X c #90563B",
"o c #965B3D",
"O c #995E3E",
"+ c #8B6437",
"@ c #8A6935",
"# c #8C6338",
"$ c #926739",
"% c #9D613F",
"& c #926839",
"* c #877732",
"= c #867831",
"- c #A2663F",
"; c #A2693F",
": c #9C5D40",
"> c #9E6443",
", c #A46641",
"< c #A56943",
"1 c #AB6C43",
"2 c #A76D48",
"3 c #A86D48",
"4 c #B06F43",
"5 c #AF7045",
"6 c #AE754D",
"7 c #B37245",
"8 c #B37549",
"9 c #B6794C",
"0 c #BB7C4C",
"q c #B97F54",
"w c #7F932A",
"e c #7E9829",
"r c #7BA525",
"t c #7AA824",
"y c #84832E",
"u c #80922A",
"i c #BC8355",
"p c #C28452",
"a c #C58A57",
"s c #C88C57",
"d c #C78D5B",
"f c #CA8E59",
"g c #CC915C",
"h c #D1965F",
"j c #CD9560",
"k c #D29760",
"l c #D49961",
"z c #D89F65",
"x c #DAA167",
"c c #DCA368",
/* pixels */
"tu@  O1770hccg00hk0740hxczxcxh077777747777777771oO11O  O11O  @ur",
"tw@XXo,170slzkppfs070pkczzxzxlp07777777777777711O%1,o  o<<o X@wr",
"tw@  Xo>170plxlgp070slzzzzzxxxls04777777777771-O<<OoX .XooX  @ur",
"wy+    o,170shhf0470flzzczczhhhg0777777777111,Xo,,o  X    XX @wt",
"@+..X   o-4700p077770plxccclp0007777777771-oooXXooX         X@ut",
" XX X    o,1111;117770shkggi81<11111117774%oooOooOooOOOoOoX  +yw",
"  X  .    ooOoooo%177700093>OoooooooO%1774111111111111111,o ..+@",
"X    XoOOoOoooooo-1777771,OooO>>>>%oo%,1477777770077777871O  X  ",
" X XXo-41111111111777771>O,117pggi81-----7777740fg07777771O    X",
"XXooo-80741177777777771,O%170alcch0874-:-70p000agg0777111<o .   ",
" o,117sf01%%4777777774%O-170skccchi;77;-:4pkhhhfp07771%oOoX  XX ",
" O800pffp8,O,11111771-O,800pkzhhhhp77707:,0hhhls04111<o   .X .X ",
" >pkhgpphs9;%Oooo-11%O,8shhlzhpphh0;777;11,390p071-oooX   . XX .",
" >dcchppsf01o    o,<O,8plxxzxhppghp0077771:O,4444-o  Xoo:oX    X",
" >dcczhsp09;O    Xo%<8slzxxxzzhfppsf0077744,O%41%oX  o<13-X  . X",
" <dcczchp071%XX X  o10hxxxzxczlfppff0;777774oo,,o ooo-1771>:XX  ",
" >gcxxxzka051-o    o10hcxzzxxlppffi077777771o.oo o-14147774,oXX ",
".>ilxxxxxkp0i8,o  X,8phxxxxzhfp0ffp07757775,o  X><7700009771oX X",
" :6pkxxzxzkghs7-oo-9skxxzzxhppfhppgs077771%oX  >ia90shhf0771O   ",
" :,9dkzxxxcxxh0,O%10hxhhzxxhppffppgs077775%oX .>iapplxlf0471o   ",
" O170plcxxzccg3O7;;0khpplxxzlfp0fgp07777751;o  X>6dlxlp09771O  .",
"@&<110skxcxccd>o;;00ggppfhzzlfppff0;77777771%oX  >phhs04111,o X ",
"wy&:170akccccd,o77;00pff0ahlppfhpp0;777777771<o  O8ip071-oooXX  ",
"te=&,117aggkki>o;70070fgppfs00ff07;0777777711<o  X111;4,X  X .+@",
"trwy&ooO>29008%o;0ff970pggp077007777777771%OooX  O11>oooXX  X+=u",
"rrte=+X  o,11-O,0slla917sf0477777707777-1,o   X  O,,o   XXX +=et",
"rrrrwy#X XoooO-9slczlp,:7077477770777--:ooXX X.  XooX     X+yert",
"rrrrte=@ X   O10skzczh8,,1141111-;4---:OOoOoX  X    .X XX +=etrr",
"rrrrrrey+X   o170pkczzhp,:oOoOooOO::-:--111,o   .X    X X+yurrrr",
"rrrrrrtu=+@+.o170phcczlp<XooooooXOO::-;77771%o. X  XX  .+=errrrr",
"rrrrrrrewuwy+o<0skzczkp011111411---4-47777741<o   .XX X+yurrrrrr",
"rrrrrrrrttey&,8plzklzh070q7477000000p00p00007<>oX X X.+=etrrrrrr",
"rrrrrrrrtu*$,8flxhppkh00ff0770fhlhhhhhhhkkka<:<-OXXX +yertrrrrrr",
"rrrrrrrrey$:40hcxhppfd00sf070pkcxcxcxxxxzzhq,:<<%oXXX+ywrrrrrrrr",
"rrrrrrrw=&-440hzxzhfp0870070slzxxcxcxxxxch813<O:<<oXX.+=urrrrrrr",
"rrrrrrru+o190plzxxxhp9770070fhhkxlhhzzhhgq,:,<%%-,X XX+=wttrrrrr",
"rrrrrrtu@o10flzzxxxzkf00as07000phlpphzp7-1---:-1-oXXX.yuerrrrrrr",
"rrrrrrtu@o10fllhhhzxck00ff077470ffppss7-:1-4::-1%oXX @utrrrrrrrr",
"rrrrrtru+O1700000ahcck07007774770phfp7----:---::<<oX @utrrrrrrrr",
"rrrrrruy$%44747417shgp0477777777;0ff0-:-----4;-1<-oX +utrrrrrrrr",
"rrrrrw=$,1444771%%093<7777777777700077--77-474;-:oX  @wttrrrrrrr",
"rrrrru+o48008774%%--OO<177117777777777070777077->oX  +ywrrrrrrrr",
"rrrrtw+o10fs04741<%O-,O-11O-17777777777777777;-:,,o  .#=utrrrrrr",
"rrrrrw@:8pffp07771%%1<%O,1%O,177-7-7777777777-::<,o  XX#yerrrrrr",
"rrrrrw+>pfppgf04771,O%,;%%<;O-111-;0777777777741%o  X X.+=urrrrr",
"rrrrru@,glapffp07774%%<<oo,<oo;<::--47777777770--oooX .XX@urrrrr",
"rrrrrw@>fzlfpphf04774-%oXXooXXo%11::-77777777774111-o X X+urrrrr",
"rrrrrw+,fcclp0ffp07744-XX      o-1::7777777777777771o   X+utrrrr",
"rrrrrw+>icxzkfppff07744-oX     XO:;;77;0777777777771o    +wttrrr",
"rrrrrw@>izzcxkpiffp07774%ooooOOoO:14777;777777774174-oX  #yerrrr",
"rrrrrw@:6plcxxhsppgs047711111111--::;7;077777771%>174,o  .#=urrr",
"rrrrtw@:,8dkxcchppffp0777777777800440pii0077771-oo171,o   X+urrr",
"rrrrrw@ o,8phxcxhfppgs0777777770fhggjjhkkd0771-oXo14-oXXX X@utrr",
"rrrrey.  o-8shfghgppgs0777741118afgfjjddgp811,XXo%-<OoX    #yerr",
"rrre*#.   o,89220pfhp0787774-oo:>><2>>><>>>oooXo,<O%<-oX  X.#=ut",
"rrey#:>2>:Xo-<OO,7fg7;777771OOoo:     .      Xo%1,%%<<-oX  XX@ut",
"te*$-8pggi> X>,,O-88,%177777111-        X    o,,O%-<%%1<o  XX@ut",
"rw+:8akccd>  o,,oo--oo1777777771::Oo    XXooOO1<-O1<%O-<:  X +ut",
"rw@>pkxccd>   ooXXoo O1777777771<11,o   Xo,41,%%<<%%,1%o.    @ut",
"rw@>jcxxxj6>>>%ooOooo%17777777777773%oooo%1771%%<-%O,,o   .X +ut",
"rw@>dcxcchgfdi611111111777777777777711114447744,%%-1%oX      @wr",
"rw@>iggkxxcxlgp077777777777777777777777777487744%%-<%oXX    :+wr",
"tw@ %17phcxhppff077777777777777777777777777777744,%%;,o      @wr",
"rw@  O;ihxxg0ihh0777777777777777777777777777777771oO13:      @wt"
};
