/* XPM */
static char *result[] = {
/* columns rows colors chars-per-pixel */
"64 64 87 1 ",
"  c #44263C",
". c #48263B",
"X c #46293C",
"o c #4C2B3A",
"O c #552D37",
"+ c #522E39",
"@ c #4E3239",
"# c #4E3D38",
"$ c #553137",
"% c #5D3434",
"& c #56333C",
"* c #593339",
"= c #633632",
"- c #663931",
"; c #693B31",
": c #653B3C",
"> c #524537",
", c #574935",
"< c #524138",
"1 c #5C5E32",
"2 c #6A4D2F",
"3 c #6B532E",
"4 c #644631",
"5 c #644B31",
"6 c #6F423C",
"7 c #774639",
"8 c #7D4B3B",
"9 c #745431",
"0 c #795937",
"q c #6F662C",
"w c #646F2F",
"e c #71692B",
"r c #6B742D",
"t c #70742B",
"y c #72782C",
"u c #7C7E2D",
"i c #824E3B",
"p c #8E553B",
"a c #8E5A3A",
"s c #90563B",
"d c #965B3D",
"f c #985D3D",
"g c #8C6337",
"h c #8A6936",
"j c #926739",
"k c #9E613F",
"l c #926839",
"z c #867831",
"x c #A2643F",
"c c #9F5F40",
"v c #9E6543",
"b c #A36641",
"n c #A46943",
"m c #AB6C43",
"M c #B06F43",
"N c #B37245",
"B c #B37549",
"V c #B7794B",
"C c #BB7C4C",
"Z c #6E872B",
"A c #6E882A",
"S c #758C27",
"D c #70872A",
"F c #748C29",
"G c #779127",
"H c #789427",
"J c #799E26",
"K c #729029",
"L c #7F952A",
"P c #7E9829",
"I c #7BA525",
"U c #7BA824",
"Y c #84832F",
"T c #80922A",
"R c #BF8555",
"E c #C28553",
"W c #C68A56",
"Q c #C88C57",
"! c #C78E5C",
"~ c #CA8D59",
"^ c #CC915B",
"/ c #D1965F",
"( c #D29760",
") c #D39961",
"_ c #D89F65",
"` c #DAA167",
"' c #DBA368",
/* pixels */
"ULhppfmNNC/''/CC//CNNC/``'_'`/CMNNNNNNNNNNNNNNCxxdxxfppfmmfpphTI",
"ULhpsdbmNC~/_/EE~~CNVE/```__'/ECNNNNNNNNNNNNNNxxxxxxdppdmbdsshLI",
"ILhppsdkmVCE/`/^EVNV~)_`'_'_``/~CNNNNNNMNNNNNNxcxxxxspssddspphLI",
"LYgppppdbmMV~//~CNNV~/_`'_'_///~CMMNNNNNNNxxxxcfxxfspsapppspphLU",
"hhappspadcMVCCECNNNNVE)''_`/ECCCVNNNNNNNNxxffddfxfdsspppppspphLI",
"ppsppppppdxxmmxxmmNNNV~////~VNMMMMNNNNNNCxxxdffxfffxfffffdsppgYL",
"ppppsppppsdffffffkmNNNVCVCCVVMNNNNNNNNMNNNNxxxxxxxxxxxNNmbdppahh",
"pssppsdffffffffffkMNNNNMNNNNNNNNNNNNNNNNCxCNNNNNECCNNNNNNmfppppp",
"psppsfxxxmmmmmmmmMNNNNNNNNNNNNNNNNNNNNNNNNNNNNNC~^CNNNNNNmfppppp",
"psdfdxCCVNmmNNNNNNNNNNNNNNNNNNMxmmmmmmmNCCCCCCCE^^CNNNmmmbdpppap",
"pdxmxVW~CxxxMNNNNNNNNNNNNNNNNMxffffffkmC~//////^EVNNNmkdffdpppps",
"pfVCCE/~ENxkbmmmmmNNNNNNNNmmmxsspppsdbNE/')////^VNmmmndpspppdspp",
"pvR///EE^~VbkddddkmNNNNNNmxfkfsspppdxBW)'/WCCCCCVNxffdpppppppppp",
"pb!''/EC~~CmfppppdbmmmmmmxdsxxffddfxmC~//~ExCxNNxxdpppdffdsppppa",
"pv!''`/~EVNmdppppafffffffdpdxxxxmmmmNNCRECVCNCCNkdsppdbmmbdppaps",
"pn!'``'/EVNmkdappppppppppppdxCxxmmmmmmmmxmxxxxxxdpddfxmNNmvfsspp",
"pv!'`_'_)WCmmbdpppspppappppsdffffffffddddfdfdffspdxmmMMNNNmbfpps",
"pvR)''__`(ECCVvdpppppppppspppppppppsdfdddddffddvkbNNCCCCNNNmfspp",
"pfBE)''_`_)()QVxdpppppppsssdpppppppsxmmmmmmmmbmNEEVV~//~CNNmfpap",
"pfbCW(_'`_```)EVkddffffffffxddfdfffxmNNNNNCCNNNC))WE)`/~CNNmfpps",
"pfmVCE)```_``_)QVxmmmmbmxxxxxxxxmmmmNNNNNC~~CNNC(`))`)ECVNNmfppp",
"hlxmmC~)_````_)~CNNNNNNVCCQEEEWCNNNNNNCCCE^~CNVE^//)/!CNmmmbfppp",
"LYjcmNVW)````)EVNNNNNNNC^//////~VNNNNV^//~ECNC~^RCCCCVVNxdfdsppp",
"IPzjbmmBE^/((~ECCCNNNNNV^//////~CNNNNC~//~VNNC~~VNNMmmxxdppppagh",
"IUPYjdffvmVCCE~//~CNNNNNCCCCRCEENNNNNVVRCCNNNVVCVNNmfdddspppshYL",
"IIIPzgpppsbmmNQ(/^CNNNNNNNNNmbxxNNNNNNNxNNNNNNNNmmmbfpppppspazPU",
"IIIIPYgsppdddvVCECNNNNNNNNNmkddkmNNNNNNNNNNNNNNmkffdsspsspsgYPII",
"IIIIIPzgpppppdbmxxNNNNNNNNmbdppfbmMmmmmMmmmbmmmbdpppsppppagzPIII",
"IIIIIIPYgspppsddfxNNNNNNNmkdapasdfffffffffffffddsppppsppshYPIIII",
"IIIIIIILzhhgppppsfxxmmmmmbdppssspsaasssspppppppsppppppspazLUIIII",
"IIIIIIIILLLYgsppssdfkfffkdspssssssssssssppppppppppsppspgYPIIIIII",
"IIIIIIIIUUILzhhaaspppppppsspi8888888888ipspaahghhhhhhhhzPUIIIIII",
"IIJIIIIIIUUJLLTYgppppppppdpi:*&&**#&&&&:issgYTTTTTTTLLTLJIIIIIII",
"IIIIIIIIIIIIUUULzapppppp8886@          &0hhzPIUUIIIUUUIIIIIIIIII",
"IIIIIIIIIIIIUIIJPYgssssi:&&&XXXX       <yTTPIIIIIUUUIIIIIIIIIIII",
"IIIIIIIIIIIIIIIIUPzhhgp7$oooooXXooXoXX >AUUIIIIIIIIIIIIIIIIIIIII",
"IIIIIIIIIIIIIIIIUJTTTF8;=%%%%%Xo$%XX%%o>AUUIIIIIIIIIIIIIIIIIIIII",
"IIIIIIIIIIIIIIIIIIUUUS3-----;%oo%%++%%o>AUUIIIIIIIIIIIIIIIIIIIII",
"IIIIIIIIIIIIIIIIIIUUUS2-----;%oo%=+o%%o>AUUIIIIIIIIIIIIIIIIIIIII",
"IIIIIIIIIIIIIIIIIIUUUS3------%$$=%oo%%o#wKJIIIIIIIIIIIIIIIIIIIII",
"IIIIIIIIIIIIIIIIIIIUIF3------==%-%@+%%@o#1KIIIIIIIIIIIIIIIIIIIII",
"IIIIIIIIIIIIIIIIIIUIGy4=---------%oo%=o  >AUIIIIIJIIIIIIIIIIIJII",
"IIIIIIIIIIIIIIIIIUUGe4*+%--------%oo%%o  >AUIIIIIIIIIIIIIIIIIIII",
"IIIIIIIIIIIIIIIIIJGt4O o%-------;%oo=%o  <rHIUIIIIIIIIIIIIIIIIII",
"IIIIIIIIIIIIIIIIUGq4$o o%--------%@o%=@  o4eHUIIIIIIIIIIIIIIIIII",
"IIIIIIIIIIIIIIIIUGq4>>><=---=%--;%oo$%oX XO4rHIIIIIIIIIIIIIIIIII",
"JIIIIIIIIIIIIIIIUJGSAAAr2--=++=-;%oXooX   o$4qGIIIIIIIIIIIIIIIII",
"IIIIIIIIIIIIIIIIIUIUUIPy2--%oo%-=%oX   oo@<,5qGUIIIIIIIIIIIIIIII",
"IIIIIIIIIIIIIJIIIIIIIGe2;--=oo*=$oXXXX o$5rDSGJIIIIIIIIIIIIIIIII",
"IIIIIIIIIIIIIIIIIIIUUS2%=%%Ooo**o      o$5yLIUIIIIIIIIIIIIIIIIII",
"IIIIIIIIIIIIIIIIIIIIUF3=+o.. .o.       .o%5eGUIIIIIIIIIIIIIIIIJI",
"IIIIIIIIIIIIIIIIIIIUUF3=#>>>>>>>>>>>>>>#o.O5SUUIIIIIIIIIIIIIIIII",
"IIIIIIIIIIIIIIIIUIIUTS24tDDDZZDZZZZZAADw#  >DUUIIIIIIIIIIIIIIIII",
"IIIIIIIIIIIIIIIIUIIIUGqqJTUUUUUUUUUIIIUK1<<1SIIIIIIIIIIIIIIIIIII",
"IIIIIIIIIIIIIIIIIIIIUIGGUUUIUUIUUIIUUUUJSAZAJIIIIIIIIIIIIIIIIIII",
"IIIIIIIIIIIIIIIIIIIIUUIIIIIIIIIIIIIIIIUUUUUIIIIIIIIIIIIIIIIIIIII",
"IIIIIIIIIIIIIIIIIIIIIIIIIIIIIIIIIIIIIIIIIIIIIIIIIIIIIIIIIIIIIIII",
"IIIIIIIIIIIIIIIIIIIIIIIIIIIIIIIIIIIIIIIIIIIIIIIIIIIIIIIIIIIIIIII",
"IIIIIIIIIIIIIIIIIIIIIIIIIIIIIIIIIIIIIIIIIIIIIIIIIIIIIIIIIIIIIIII",
"IIIIIIIIIIIIIIIIIIIIIIIIIIIIIIIIIIIIIIIIIIIIIIIIIIIIIIIIIIIIIIII",
"IIIIIIIIIIIIIIIIIIIIIIIIIIIIIIIIIIIIIIIIIIIIIIIIIIIIIIIIIIIIIIII",
"IIIIIIIIIIIIIIIIIIIIIIIIIIIIIIIIIIIIIIIIIIIIIIIJIIIIIIIIIIIIIIII",
"IIIIIIIIIIIIIIIJIIIJIIIIIIIIIIIIIIIIIIIIIIIIIIIIIIIIIIIIIIIIJIII",
"JIIIIIIIIIIIIIIIIIIIIIIIIIIIIIIIIIIIIIIIIIIIIIIIIIIIIIIIIIIIIIII"
};
