/* XPM */
static char *_66cecb73bb94adbf832b8844d19f333SgsZka0sZY3C2TQE[] = {
/* columns rows colors chars-per-pixel */
"64 64 220 2 ",
"   c #7ba525",
".  c black",
"X  c #010000",
"o  c #010100",
"O  c #030200",
"+  c #040300",
"@  c #070500",
"#  c #060601",
"$  c #090600",
"%  c #090700",
"&  c #0C0800",
"*  c #0D0901",
"=  c #0E0B01",
"-  c #100C01",
";  c #110C01",
":  c #130F00",
">  c #130F01",
",  c #140E00",
"<  c #140F01",
"1  c #141000",
"2  c #151000",
"3  c #181200",
"4  c #181300",
"5  c #1B1501",
"6  c #1C1501",
"7  c #251A00",
"8  c #281E01",
"9  c #291E01",
"0  c #2A2000",
"q  c #2D2000",
"w  c #2E2600",
"e  c #2F2601",
"r  c #322401",
"t  c #392B01",
"y  c #413300",
"u  c #453100",
"i  c #533D01",
"p  c #513F01",
"a  c #574301",
"s  c #5F4901",
"d  c #554C0F",
"f  c #654F00",
"g  c #684F01",
"h  c #684B06",
"j  c #665201",
"k  c #665502",
"l  c #735901",
"z  c #785D00",
"x  c #635312",
"c  c #705E13",
"v  c #7F6000",
"b  c #7B6503",
"n  c #75620C",
"m  c #7C630D",
"M  c #63631C",
"N  c #726316",
"B  c #7A6513",
"V  c #7E6814",
"C  c #7F6814",
"Z  c #7F6914",
"A  c #7B731A",
"S  c #896700",
"D  c #886800",
"F  c #8C680A",
"G  c #917602",
"H  c #927802",
"J  c #917E00",
"K  c #9B7B01",
"L  c #9A7D01",
"P  c #9D7E01",
"I  c #9D7E02",
"U  c #9E7E02",
"Y  c #826B14",
"T  c #84761C",
"R  c #86781D",
"E  c #A27E02",
"W  c #897C20",
"Q  c #A68603",
"!  c #A88303",
"~  c #A98303",
"^  c #A98503",
"/  c #AB8503",
"(  c #AC8603",
")  c #A48C05",
"_  c #AC8B05",
"`  c #B18A01",
"'  c #B28D03",
"]  c #B58C01",
"[  c #B88E03",
"{  c #9E9025",
"}  c #A19F2E",
"|  c #AFAA2D",
" . c #C19C03",
".. c #C19D03",
"X. c #C3A503",
"o. c #CAA403",
"O. c #C9A504",
"+. c #C2A803",
"@. c #C6A508",
"#. c #C7A608",
"$. c #C7A609",
"%. c #CEB207",
"&. c #DDB903",
"*. c #DDBA03",
"=. c #D4B50E",
"-. c #DCB10E",
";. c #DEB817",
":. c #E4AF08",
">. c #E5AF08",
",. c #EABB07",
"<. c #E7BB08",
"1. c #E1BD08",
"2. c #E9BB08",
"3. c #E8BA09",
"4. c #F2BB08",
"5. c #CABB2F",
"6. c #F2C40A",
"7. c #F4C409",
"8. c #F7CF0B",
"9. c #F7CD0C",
"0. c #FACF0B",
"q. c #FFCC0B",
"w. c #F5D109",
"e. c #F6D009",
"r. c #F6D10A",
"t. c #F6D20A",
"y. c #F8D20A",
"u. c #FFD40D",
"i. c #FFD612",
"p. c #FED616",
"a. c #FFD616",
"s. c #FFD716",
"d. c #FFDC16",
"f. c #FFE015",
"g. c #FEE419",
"h. c #FFE51A",
"j. c #FFE21C",
"k. c #FFE71E",
"l. c #FFE91F",
"z. c #CEC434",
"x. c #CFCE37",
"c. c #D0CF37",
"v. c #D1D13A",
"b. c #D2D23A",
"n. c #D4D33A",
"m. c #D5D43A",
"M. c #D9D738",
"N. c #DBD83B",
"B. c #EFD021",
"V. c #FFDC23",
"C. c #FFDD23",
"Z. c #FFE326",
"A. c #FFE12B",
"S. c #FFE32B",
"D. c #FFE72B",
"F. c #FFE02D",
"G. c #FFE12D",
"H. c #FFE52E",
"J. c #FFEA2B",
"K. c #FFEF28",
"L. c #FFEC2B",
"P. c #FFEB2F",
"I. c #FFF423",
"U. c #FFF42A",
"Y. c #EEE33B",
"T. c #E8E73E",
"R. c #E9E73E",
"E. c #FFE130",
"W. c #FFE230",
"Q. c #FFE630",
"!. c #FFE932",
"~. c #FFEB33",
"^. c #FFEF31",
"/. c #FFEC33",
"(. c #F7E83B",
"). c #F4EA3C",
"_. c #F0ED3E",
"`. c #F7ED3C",
"'. c #FFE938",
"]. c #FFE939",
"[. c #FFEA39",
"{. c #FFE93B",
"}. c #FFEA3A",
"|. c #FFEB3A",
" X c #FFEA3B",
".X c #FFEB3B",
"XX c #FFED38",
"oX c #FFEC3B",
"OX c #FFED3B",
"+X c #FFEB3C",
"@X c #FFEB3D",
"#X c #FFEC3C",
"$X c #FFEC3D",
"%X c #FFED3D",
"&X c #FFEE3C",
"*X c #FFEF3C",
"=X c #FFEC3E",
"-X c #FFED3E",
";X c #FFED3F",
":X c #FFEE3E",
">X c #FFEE3F",
",X c #FFF031",
"<X c #FFF032",
"1X c #FFF132",
"2X c #FFF036",
"3X c #FFF337",
"4X c #FDF03C",
"5X c #FFF03C",
"6X c #FFF03D",
"7X c #FFF23D",
"8X c #FFF23E",
"9X c #FFF33E",
"0X c #FFF43E",
"qX c #FFF53E",
"wX c #FFF53F",
"eX c #E5E741",
"rX c #FFEE40",
"tX c #FFEF40",
"yX c #FFF041",
"uX c #FFF741",
/* pixels */
"                                                    . % ; < < < < < < ; % .                                                     ",
"                                            % = 5 0 7 g Q ^ ~ ~ ^ ^ ^ Q g 7 0 5 = %                                             ",
"                                      . = e k l ' <.>.7.h.l.k.k.l.l.Z.h.7.>.<.' l k e = .                                       ",
"                                  . 9 y v X.u.i.p.D.P.H.'.%X%X%X%X%XrX+XH.P.D.p.i.u.X.v y 9 .                                   ",
"                              . ; s ] 1.q.j.W.'.'.%XyXyX%X'.'.'.'.'.'.%XrXyX%X'.'.W.j.q.1.] s ; .                               ",
"                            . e S ,.d.J.~.'.%X%X%X'.'.%X'.'.'.'.'.'.'.'.%X'.'.%X%X%X'.~.P.d.,.S e .                             ",
"                        . # i  .0.V.'.%X%X%X'.'.'.'.%X%X+X+X'.'.'.'.+X+X%X%X'.'.'.'.%X%XrX'.V.0. .i # .                         ",
"                      . 4 G &.p.~.+X%X'.'.'.'.'.'.'.%X+X+X+X+X'.'.'.'.+X+X+X'.'.'.'.'.'.+X%X+X~.p.&.G 4 .                       ",
"                    . 1 L y.Z.'.rX%X%X%X'.'.'.'.'.'.%X+X+X'.'.'.'.'.'.OX%X%X'.'.'.'.'.'.+X+X%X%X'.Z.y.L 1 .                     ",
"                  . < E e.A.rX%X+X%X%X%X'.'.'.'.'.'.%X%X+X'.'.'.'.'.'.'.OXOX'.'.'.'.'.'.%X'.'.'.%XrXA.e.E < .                   ",
"                . ; I e.F.rX%X%X+X'.%X%X'.'.+X+X'.%X%X+X'.'.'.'.'.'.'.'.%X%X+X+X'.'.+X+X%X%X'.'.'.%XrXF.e.I ; .                 ",
"              . 1 I e.A.rX%X%X%X'.'.+X'.'.'.%X%X+X+X+X+XOX%X%X%X%X%X%XOX%X%X+X+X'.'.+X+X+X%X'.'.'.'.%XrXA.e.I 1 .               ",
"            . 4 I e.F.rX'.'.+X%X'.'.'.'.+X+X'.+X'.'.OX'.4X_.R.R.T.T._.4X'.OX'.'.'.%X%X%X+X+X'.'.'.'.%X%XrXF.e.I 4 .             ",
"            ; H e.A.rX%X'.'.+X'.'.'.'.'.%X+X+X+X'.OX4XuXz.W T R R T W z.uX4XOX'.+X%X%X%X+X+X'.'.'.'.%X%X%XrXA.e.H ;             ",
"          + i &.Z.rX%X'.'.'.+X+X%X%X'.'.'.'.'.'.%X(.5.| M h ) _ _ ) h M | 5.(.%X'.'.%X%X%X%X%X%X'.'.'.+X%X%XrXZ.&.i +           ",
"        . r  .p.'.%X'.'.'.'.%X+X%X%X%X+X+X'.'.'.0XN.N b K ;.U.U.L.U.;.K b N N.0X'.+X+X+X%X%X%X+X'.'.'.+X+X+X%X'.p. .r .         ",
"        ; D 8.^.rX%X%X%X'.'.+X+X%X+X+X+X'.'.'.'.0Xv.B O.f.Q.rX%X%XrXQ.f.O.B v.0X'.'.'.'.'.'.'.'.%X%X%X%X'.'.'.%X^.8.D ;         ",
"      . a 2.V.%X%X%X%X+X'.'.'.+X%X+X'.'.'.'.'.'.0Xn.Z $.,X%X'.'.+X'.%X,X$.Z n.0X'.'.'.'.'.'.'.'.%X%X%X+X'.'.'.%X%XV.2.a .       ",
"      9 ` d.'.%X+X+X'.'.'.'.%X+X'.'.'.'.+X+X%X%X0Xm.Z $.,X%X'.'.+X+X%X,X$.Z n.0X%X+X'.'.'.'.+X+X+X+X'.+X'.'.+X+X%X'.d.` 9       ",
"    . u 2.L.%X+X+X+X'.'.'.'.%X%X'.'.'.'.+X+X%X%X0Xn.Z $.^.%X'.'.%X%X%X^.$.Z n.0X%X'.'.'.'.'.'.+X+X+X'.'.'.'.%X+X+X%XL.2.u .     ",
"    = z 9.~.%X'.'.'.'.'.'.+X%X%X'.'.+X'.'.'.%X%X0Xn.Z $.^.%X+X+X'.'.%X^.$.Z n.0X%X%X'.'.'.'.%X+X'.'.'.'.+X+X+X%X'.%X~.9.z =     ",
"    t o.j.+X%X'.'.'.'.'.'.'.%X%X+X'.+X+X'.'.%X+X0Xn.Z $.^.%X+X%X'.'.%X^.$.Z n.0X%X%X'.'.'.'.%X%X'.'.'.'.+X'.+X%X'.%X'.j.o.t     ",
"  % j u.W.%X%X%X%X+X'.'.'.'.'.'.%X%X%X+X'.'.'.'.0Xn.Z $.^.%X+X+X'.'.%X^.$.Z n.0X%X+X+X'.'.+X+X%X%X+X'.'.+X+X'.'.'.+X%XW.u.j %   ",
"  # f i.'.%X%X%X%X'.'.'.'.'.'.'.%X%X%X%X'.'.'.'.0Xn.Z $.^.%X'.'.'.'.%X^.$.Z n.0X%X%X+X'.'.'.%X%X%X'.'.'.'.'.'.+X'.+X%X'.i.f #   ",
"  6 [ p.'.%X'.'.'.'.'.'.'.'.'.'.%X%X'.'.'.+X%X%X0Xn.Z $.^.%X'.'.'.'.%X^.$.Z n.0X+X+X%X%X'.'.'.'.%X%X'.'.'.'.'.'.'.'.%X'.p.[ 6   ",
"  q 4.D.%X'.'.'.'.'.'.'.%X+X+X+X%X+X+X'.'.+X+X%X0Xn.Z $.^.%X'.'.+X+X%X^.$.Z n.0X+X%X%X%X'.'.'.'.%X%X'.'.'.'.%X+X'.'.'.%XD.4.q   ",
"  7 >.P.yX'.'.'.'.'.+X+X%X%X%X+X%X%X'.'.'.'.%X%X0Xn.Z $.^.%X'.'.+X+X%X^.$.Z n.0X+X'.%X%X'.'.+X+X%X+X+X'.+X%X%X%X+X'.'.yXP.:.7   ",
"% g 6.H.rX'.'.'.'.+X+X%X%X%X%X+X+X%X'.'.'.'.%X%X0Xn.Z $.^.%X'.'.+X%X%X^.$.Z n.0X'.'.+X'.'.'.+X+X+X+X'.'.+X%X%X%X+X%X%XyXH.6.g % ",
"< ( h.'.%X%X%X%X%X%X%X%X+X+X%X%X+X'.'.'.'.'.'.%X0Xn.Z $.^.%X%X+X'.'.%X^.$.Z n.0X'.'.'.'.%X%X%X%X+X+X%X%X+X'.'.'.+X+X+X%X'.h.( < ",
"< ^ l.%X%X%X%X%X+X'.%X%X+X+X%X%X+X+X'.'.'.'.+X%X0Xn.Z $.^.%X+X+X'.'.%X^.$.Z n.0X'.'.'.'.%X+X%X%X'.+X+X%X+X'.'.'.'.'.+X+X%Xl.^ < ",
"< ! k.%X'.'.+X+X'.'.'.'.'.'.%X%X'.'.'.'.'.'.'.'.0Xn.Z $.^.%X+X'.'.'.%X^.$.Z n.0X%X%X'.'.'.'.'.'.'.'.%X%X'.'.'.'.'.'.'.'.%Xk.~ < ",
"< ~ k.%X'.'.'.+X'.'.'.'.'.'.%X+X'.'.'.'.'.'.'.'.0Xn.Z $.^.%X'.'.'.'.%X^.$.Z m.0X%X%X%X+X'.'.'.'.'.'.%X%X+X'.'.'.'.'.'.'.%Xk.~ < ",
"< ~ k.%X+X+X'.'.'.'.%X%X%X+X+X+X'.'.'.'.+X%X'.'.0Xn.Z $.,X%X%X+X+X'.%X^.$.Z n.0X'.'.%X%X%X%X%X%X'.'.'.'.'.'.+X'.'.'.'.'.%Xk.~ < ",
"< ~ k.%X%X%X'.'.'.'.%X%X%X+X'.'.'.'.'.'.%X%X'.'.0Xn.Z $.,X%X%X+X+X'.%X^.$.Z n.0X'.'.%X'.%X%X+X+X'.'.'.'.+X'.+X+X'.'.'.'.%Xk.~ < ",
"< ^ l.%X%X%X+X+X'.'.'.%X'.'.'.'.'.'.+X+X%X%X+X+X0Xn.Z $.^.%X'.'.'.'.%X^.$.Z n.0X'.'.'.'.'.'.+X'.'.'.+X%X%X%X%X+X%X%X'.'.%Xl.^ < ",
"< ( h.'.%X+X+X+X'.'.'.%X'.'.'.'.'.'.'.+X%X%X+X+X0Xn.Z $.^.%X'.'.'.'.%X^.$.Z n.0X'.'.'.'.'.'.'.'.+X+X+X%X%X%X%X%X%X+X'.%X'.h.( < ",
"% g 6.H.rX'.'.+X'.'.'.'.'.+X%X%X%X%X%X+X'.+X+X%X0Xn.Z $.^.%X'.'.'.'.%X,X$.Z n.0X'.'.'.'.'.'.'.'.+X%X%X%X+X+X%X%X%X%X'.rXH.6.g % ",
"  7 >.P.yX'.'.'.'.'.'.'.'.'.%X%X%X%X%X%X'.+X+X%X0Xn.Z $.^.%X'.'.'.+X%X,X$.Z n.0X'.'.'.'.'.'.%X+X'.'.%X%X+X%X%X%X+X%X'.yXP.>.7   ",
"  q 4.D.%X'.'.'.+X%X'.'.+X+X%X%X'.+X'.'.'.'.%X%X0Xn.Z $.^.%X'.'.'.'.%X^.$.Z n.0X'.'.'.'.+X+X%X%X'.'.'.'.+X'.%X%X+X'.'.%XD.4.q   ",
"  6 [ p.'.%X'.'.%X%X'.'.'.+X+X%X'.'.'.'.'.'.%X%X0Xn.Z $.^.%X'.'.'.'.%X^.$.Z n.0X+X'.+X+X+X%X%X%X'.'.'.'.'.'.+X'.+X+X%X'.p.[ 6   ",
"  # f i.'.%X'.'.%X%X'.'.'.'.'.+X%X%X+X+X+X'.+X%X0Xn.Z $.^.%X'.'.'.'.%X^.$.Z n.0X%X%X'.'.'.'.'.'.%X%X%X+X+X+X'.'.'.'.%X'.i.f #   ",
"  % j u.W.%X'.'.%X%X'.'.'.'.%X%X%X%X+X+X'.'.'.'.0Xn.Z $.,X%X'.'.'.'.%X^.$.Z n.0X%X%X'.'.'.'.'.'.%X%X%X%X+X+X'.'.'.'.%XW.u.j %   ",
"    t O.j.+X%X'.+X+X'.'.+X+X%X%X%X%X'.'.'.'.'.'.0Xn.Z $.,X%X'.'.'.'.%X^.$.Z n.0X%X+X+X'.%X%X+X%X'.'.'.'.'.'.'.'.'.%X'.j.o.t     ",
"    = z 9.~.%X'.+X+X'.'.+X%X%X%X+X'.'.'.'.'.'.'.0Xn.Z $.,X%X'.'.'.'.%X^.$.Z n.0X%X%X+X+X%X%X%X%X'.'.'.'.'.'.'.'.'.%X~.9.z =     ",
"    . u 2.L.%X+X'.+X+X%X+X'.'.'.'.'.'.'.'.'.'.'.0Xn.Z $.,X%X'.'.'.'.%X,X$.Z n.0X+X+X%X%X+X+X'.'.'.'.'.'.'.'.'.'.+X%XL.2.u .     ",
"      9 ` d.'.%X'.+X+X%X'.'.'.'.'.'.'.'.'.'.'.'.0Xn.Z $.,X%X'.'.'.'.%X,X$.Z n.0X+X%X%X%X+X+X'.'.+X+X'.'.'.'.'.'.%X+Xd.` 9       ",
"      . a 2.V.%X%X'.%X%X+X'.'.'.+X+X%X%X+X%X'.'.0Xv.Y %.I.OXrX%XrXrXOXI.%.Y v.0X+X'.%X%X'.'.'.'.%X%X%X%X'.+X'.%X%XV.2.a .       ",
"        ; D 8.^.%X'.%X%X%X'.'.'.+X%X%X%X%X%X'.'.0Xm.c J +.B.2X2X2X3XB.+.J c m.0X'.'.+X'.'.'.'.'.%X%X%X+X+X+X'.%X^.9.D ;         ",
"        . r  .p.'.%X'.'.'.'.%X%X%X%X'.'.'.'.+X+X4XY.{ A d F =.-.-.=.F d A { Y.4X%X+X+X+X+X'.+X%X%X%X'.'.'.'.%X'.p. .r .         ",
"          + i &.Z.rX%X'.'.'.%X%X%X%X'.'.'.'.%X%X'.OX).eX} x n m m n x } eX).OX'.%X%X%X+X'.'.'.'.%X%X'.'.'.%XrXZ.&.i +           ",
"            ; H e.A.rX%X'.'.'.%X+X'.'.'.+X+X%X%X'.'.4X4X`.M.x.c.c.x.M.`.4X4X'.'.%X%X'.'.'.'.'.'.%X+X+X'.%XrXF.e.H ;             ",
"            . 4 I e.F.rX'.'.'.+X+X+X'.'.+X+X%X%X'.'.'.+X%X4X4X4X4X4X4X%X'.'.'.'.+X'.'.'.'.'.'.'.%X+X+X'.rXF.e.I 4 .             ",
"              . 1 I e.A.rX%X'.'.'.'.+X+X'.'.'.'.%X%X%X+X'.'.+X+X'.'.'.'.'.+X+X+X'.+X+X'.+X+X'.'.'.'.%XrXA.e.I 1 .               ",
"                . ; I e.F.rX%X'.'.+X+X%X'.'.'.'.%X%X%X%X'.+X+X+X'.'.'.'.'.'.+X%X'.'.'.'.'.+X'.'.'.%XrXF.e.I ; .                 ",
"                  . < E e.A.rX%X'.'.%X%X%X+X'.'.+X%X'.'.'.'.%X+X'.+X'.'.+X+X%X%X+X'.%X+X'.'.'.'.%XrXA.e.E < .                   ",
"                    . 1 L y.Z.'.%X%X%X%X%X'.'.'.'.'.'.'.'.'.%X%X%X%X'.'.+X+X+X%X%X%X%X+X+X'.%X%X'.Z.y.L 1 .                     ",
"                      . 4 G &.p.~.+X%X'.'.'.'.'.'.'.'.+X'.'.+X%X%X%X%X%X'.'.'.+X+X+X+X%X'.%X+X~.p.&.G 4 .                       ",
"                        . # i  .0.V.'.%X%X%X'.'.'.'.+X+X'.'.+X+X%X%X+X+X'.'.'.'.+X%X%XrX%X'.V.0. .i # .                         ",
"                            . e S ,.d.P.~.'.%X%X%X%X'.%X'.'.'.'.'.'.+X'.'.'.'.%X%X%X+X~.J.d.,.S e .                             ",
"                              . ; s ] 1.q.j.W.'.'.rXyXyX%X'.'.'.'.'.'.%XrXyX%X'.'.W.j.q.1.] s ; .                               ",
"                                  . 9 y v X.u.i.s.H.P.H.'.%X%X%X%X%X%X'.H.P.D.p.i.u.X.v y 9 .                                   ",
"                                      . = e k l ' <.>.7.h.l.k.k.k.k.l.h.7.>.<.' l k e = .                                       ",
"                                            % = 5 0 7 g Q ^ ~ ~ ~ ~ ^ Q g 7 0 5 = %                                             ",
"                                                    . % ; < < < < < < ; % .                                                     "
};
