/* XPM */
static char *_dc877dd17c84570893339dc310c8d00wEJVZXgmSsuXGUPx[] = {
/* columns rows colors chars-per-pixel */
"64 64 199 2 ",
"   c #7ba525",
".  c #54463F",
"X  c #386E51",
"o  c #554740",
"O  c #564942",
"+  c #594C45",
"@  c #5B4E49",
"#  c #4C5E41",
"$  c #4A5747",
"%  c #5E524C",
"&  c #555746",
"*  c #60544E",
"=  c #635652",
"-  c #655954",
";  c #695C56",
":  c #675D5B",
">  c #6A5E5A",
",  c #4D614E",
"<  c #516449",
"1  c #57674B",
"2  c #596D55",
"3  c #5A6D59",
"4  c #546959",
"5  c #5D7157",
"6  c #5D745C",
"7  c #656C53",
"8  c #696D54",
"9  c #6D625D",
"0  c #666456",
"q  c #71635F",
"w  c #62735A",
"e  c #7ba525",
"r  c #7ba525",
"t  c #7ba525",
"y  c #7ba525",
"u  c #7ba525",
"i  c #7ba525",
"p  c #7ba525",
"a  c #7ba525",
"s  c #7ba525",
"d  c #7ba525",
"f  c #7ba525",
"g  c #7ba525",
"h  c #7ba525",
"j  c #7ba525",
"k  c #7ba525",
"l  c #7ba525",
"z  c #7ba525",
"x  c #7ba525",
"c  c #7ba525",
"v  c #7ba525",
"b  c #7ba525",
"n  c #7ba525",
"m  c #7ba525",
"M  c #7ba525",
"N  c #7ba525",
"B  c #7ba525",
"V  c #7ba525",
"C  c #7ba525",
"Z  c #7ba525",
"A  c #7ba525",
"S  c #7ba525",
"D  c #7ba525",
"F  c #7ba525",
"G  c #7ba525",
"H  c #7ba525",
"J  c #7ba525",
"K  c #7ba525",
"L  c #7ba525",
"P  c #7ba525",
"I  c #7ba525",
"U  c #7ba525",
"Y  c #7ba525",
"T  c #7ba525",
"R  c #7ba525",
"E  c #7ba525",
"W  c #7ba525",
"Q  c #7ba525",
"!  c #7ba525",
"~  c #7ba525",
"^  c #7ba525",
"/  c #7ba525",
"(  c #7ba525",
")  c #7ba525",
"_  c #7ba525",
"`  c #7ba525",
"'  c #7ba525",
"]  c #7ba525",
"[  c #7ba525",
"{  c #7ba525",
"}  c #7ba525",
"|  c #7ba525",
" . c #7ba525",
".. c #7ba525",
"X. c #7ba525",
"o. c #7ba525",
"O. c #7ba525",
"+. c #4CA45A",
"@. c #43AF58",
"#. c #4AA459",
"$. c #55A259",
"%. c #55A85B",
"&. c #47B353",
"*. c #49B454",
"=. c #4DB857",
"-. c #45B058",
";. c #4FB658",
":. c #4FB958",
">. c #50B757",
",. c #50B758",
"<. c #51B858",
"1. c #5B9B63",
"2. c #439C73",
"3. c #449D6C",
"4. c #6D836B",
"5. c #698067",
"6. c #7C8269",
"7. c #70916B",
"8. c #7C8373",
"9. c #768D75",
"0. c #71897D",
"q. c #7D9479",
"w. c #6C8474",
"e. c #57A863",
"r. c #5EBE61",
"t. c #5FB264",
"y. c #7ba525",
"u. c #62B468",
"i. c #7BB26E",
"p. c #7EB572",
"a. c #5AC05F",
"s. c #5DC061",
"d. c #74CA6F",
"f. c #70C770",
"g. c #7ba525",
"h. c #7BCE73",
"j. c #6FC86E",
"k. c #7ba525",
"l. c #85887F",
"z. c #819F6C",
"x. c #88A97D",
"c. c #80B975",
"v. c #8DBC7A",
"b. c #82BA78",
"n. c #7ba525",
"m. c #7ba525",
"M. c #7ba525",
"N. c #7ba525",
"B. c #7ba525",
"V. c #7ba525",
"C. c #7ba525",
"Z. c #7F9580",
"A. c #878080",
"S. c #8B8484",
"D. c #8E8788",
"F. c #8E8888",
"G. c #7ba525",
"H. c #7ba525",
"J. c #7ba525",
"K. c #7ba525",
"L. c #7ba525",
"P. c #7ba525",
"I. c #7ba525",
"U. c #7ba525",
"Y. c #7ba525",
"T. c #7ba525",
"R. c #7ba525",
"E. c #979090",
"W. c #999191",
"Q. c #9C9392",
"!. c #A19796",
"~. c #A29696",
"^. c #A29897",
"/. c #A39997",
"(. c #A59A99",
"). c #7ba525",
"_. c #A59698",
"`. c #97A894",
"'. c #90AA90",
"]. c #A5AB95",
"[. c #A2A79A",
"{. c #A99FA0",
"}. c #96ACA0",
"|. c #AFA6A6",
" X c #AAA1A1",
".X c #B0A7A7",
"XX c #B2A9A9",
"oX c #B4AAAB",
"OX c #B8ACAE",
"+X c #B2A7A9",
"@X c #BDB3B3",
"#X c #96C281",
"$X c #95CA84",
"%X c #8ECD82",
"&X c #A2CF8F",
"*X c #A3D08F",
"=X c #A7D594",
"-X c #A5E38F",
";X c #B9C0AC",
/* pixels */
"                                                            @X@X@X@X@X@X                                                        ",
"                                                            ).|.|.|.|.|.                                                        ",
"                                        S.S.S.Q.XX^.q o o > S.Q.E.L.L.Q.XX^.q O O O                                             ",
"                                        D.S.S.Q.XX/.9 . O - l S.S.S.S.Q.XX(.q + * ;                                             ",
"                            @X^.9 * l D.D.S.S.Q.XX/.9 . O - l D.S.S.S.Q.XX(.q % d n k.Q.XX!.q O                                 ",
"                            |.!.l i j c v v S.L.).!.x ; @ - l D.D.S.S.P.Q.H.; = l D.S.Q.XX/.q O                                 ",
"                    O = l F.L.Q.!.J.i : y l v D.L.Q.!.H.; = l D.D.D.D.v p ; + = l D.S.E.XX(.q o . - l D.                        ",
"                    O = j V.S.L. XY.> + = y l v S.Q.oX(.q * s v v v v s * O % 9 n D.L.Q.!.S.; + % y n P.                        ",
"                o O O % y l V.P.L.b - O + - y l v Q.oX(.q @ y a a a a y % % p n k.L. X^.x - + * p n S.L. X@X                    ",
"                i ; % @ - y l A.S.v p ; @ @ = y l G.`.I.w < 2 6 6 6 6 3 % > n P.L.Q.^.J.i * = 9 n S.S.L..XoX                    ",
"            S.P.Q.H.; O + = y l v P.Q.H.> O @ = y g 1.+.] Z A ] ] A A X.3 d v R. X!.x i j l l n S.S.S.E.XX).i .                 ",
"            v L. X!.p - > 9 > d n T. XQ.w # # 1 h 7.%.=.:.:.:.:.:.:.:.%.7.8.9.q.'.U.; % s S.S.F.L.Q.Q.Q.!.H.i ;                 ",
"        O ; c P.L.P.v b Y.H.9 ; n P.R.l...V V  .p.$XN.M.M.N.M.M.M.M.M.N.$Xb.e.#.%...& @ y l v L.{.XXXX!.j i s S. X@X            ",
"        O = j v v v S.Q.oX[.e 1 5.q.U.x.t.=.:.s.h.N.N.N.N.N.N.N.N.N.N.N.N.h.r.=.=.$.o.8 5 g G.Q.!.(.(.H.i 9 c L.).XX            ",
"        O % y a a l v Q.oX[.1.S [ e.v.$X%XN.N.h.r.;.;.,.,.,.,.,.,.,.,.;.;.r.h.M.M.N.m.i. .1.`._.x 9 9 i j n S.D.L.Q.XX@X        ",
"        O % - : : y l S.Q.I.+.W &.r.h.M.N.N.N.f.@.Y Y Y Y Y Y Y Y Y Y Y Y @.f.N.N.N.N.h.a.u.'.I.5 # + ; c D.D.S.S.P.Q./.        ",
"    + + + + @ @ @ = y a i 5 A &.d.h.r.;.;.,.,.-.L N N N N N N N N N N N N L -.,.,.,.:.s.h.h.u.#.A X.2 d n D.D.D.D.v p q         ",
"    + + O + * - 9 9 > 0 8 e $.s.h.f.@.Y Y Y Y Y K N N N N N N N N N N N N K Y Y Y Y Y @.f.h.r.=.:.$.f a v D.D.S.n p % .         ",
"    + O O * p S.Q.H.> 7 z.m.N.h.r.@.~ N N N N K Y Y Y Y Y Y Y Y Y Y Y Y Y Y K N N N N L @.r.h.N.N.c.k a v D.D.n y * + .         ",
"    + + @ > c E. X!.x h c.B.N.f.O.J N M N N N L -.,.,.,.,.,.,.,.,.,.,.,.,.-.L N N N M N J O.f.N.N.m.q.8.v v c p % + * 9         ",
"    O @ - d v P.L.Q.!.U.u.=.,.-.~ N M N J Y Y @.f.N.N.N.N.N.N.N.N.N.N.N.N.f.@.Y Y J N M N ~ @.,.;.y.m.x.8.d : % + % p S. X@X    ",
"    O % : a z v S.L. X`.%.U Y J N M N ~ -.,.,.r.h.N.N.N.N.N.N.N.N.N.N.N.N.h.r.,.,.-.~ N M N J Y T &.d.c.h ; - = = 9 n Q.XX@X    ",
"    O % > d a l v P.R.I.+.Y H N M N J O.f.N.N.h.r.;.,.,.,.,.,.,.,.,.,.,.;.r.h.N.N.f.O.J N M N K Y E *. .1 - a l l n A.Q.XX@X    ",
"    ; - : : : y j n n 4.} ! H N N L @.r.h.N.N.d.&.U Y Y Y Y Y Y Y Y Y Y U &.d.N.N.h.r.@.L N N H ! Y R Z < > n D.D.D.D.P.Q.!.    ",
"D.S.n p - @ % % = - - 4 G H ! Y Y @.f.h.r.;.,.*.E Y H N N K K K K N N H Y E *.,.;.r.h.f.@.Y Y ! H H Y ] 3 d v D.D.D.D.v p >     ",
"v A.S.n y * + O O O $ X F N Y E &.y.h.d.&.U Y Y Y ! N ) ) ) ) ) ) ) ) N ! Y Y Y U &.d.h.y.&.E Y N M ! I { g z v n l l j i i     ",
"a l A.S.n p % . o $ X F m N Y &.d.h.y.&.E Y H K K K M ) ) ) ) ) ) ) ) M K K K H Y E &.y.h.d.&.Y N M M L I ..g d > * = i H.).oX@X",
": y l A.D.v p q q 6 _ M N L @.y.h.f.@.Y Y ! N ) ) M N K K K K K K K K N M ) ) N ! Y Y @.f.h.y.@.~ N M N Q P 5 ; - = = p Q.oX@X@X",
"% - y l A.P.Q.(.(.U.` M C @.f.h.y.@.L N K K M ) ) N J Y Y Y Y Y Y Y Y J N ) ) M K K K L @.y.h.f.@.J N M N G , - a l l v P.(.oX@X",
"O @ - y l P.).OX@X`.2.L O.r.h.d.&.Y N ) ) ) ) M N ~ -.,.,.,.,.,.,.,.,.-.~ N M ) ) ) ) N Y &.d.h.r.O.~ N M D , > c D.D.S.S.P.Q.^.",
"O + @ - y l P.(.OX}.e.O.j.h.r.&.E Y K ) ) ) ) N J O.f.N.N.N.N.N.N.N.N.f.O.J N ) ) ) ) K Y E &.r.h.f.-.Q N D 4 d v D.D.D.D.v p 9 ",
"+ O O @ - y a b L.I.+.=.N.N.;.U Y ! K ) ) M N L O.r.h.N.N.N.N.N.N.N.N.h.r.O.L N M ) ) K ! Y U ;.N.N.,.Y N _ t a v D.D.S.n d % . ",
"O O O + @ % % - > w A :.N.N.,.Y H N M ) ) N J O.f.h.r.;.,.,.,.,.,.,.;.r.h.f.O.J N ) ) M N H Y ,.N.N.,.Y N _ t a v D.D.n 9 % O . ",
"% % = - - - 9 ; + < | s.h.d.*.Y K ) ) M N L O.y.h.d.&.U Y Y Y Y Y Y U &.d.h.y.O.L N M ) ) K Y *.d.h.r.O.~ G 4 y s l l j i 9 9 q ",
"> y j l l b Q.H.- 1 i.h.r.&.E Y K ) ) N J O.f.h.r.&.E Y H K K K K H Y E &.r.h.f.O.J N ) ) K Y E &.r.h.f.-.V < % = = = i P.(.^.^.",
": d v D.S.L. X!.j 6.#XN.;.U Y ! K M N ~ O.r.h.d.&.T Y J M ( ) ) ( M J Y T &.d.h.r.O.~ N M K ! Y U ;.N.N.,.Z < % = = = p Q.oX@X@X",
"% > c D.D.D.L.Q.!.].*XM.;.Y H N M N J -.f.h.r.&.E Y H M ^ / ( ( / ^ M H Y E &.r.h.f.-.J N M N H Y ,.N.N.:.A 5 y s l l v P.(.XX@X",
"O = j A.S.S.S.T.+X;X=XM.;.Y N ) ) K Y ,.N.N.;.U Y J M ^ / ^ M M ^ / ^ M J Y U ;.N.N.,.Y K ) ) N Y ,.N.M.:.] 6 a v D.D.S.S.L..X@X",
"O % y l A.D.S.R.+X;X=XM.;.Y N ) ) K Y ,.N.N.,.Y H M ^ / ^ M J J M ^ / ^ M H Y ,.N.N.,.Y K ) ) N Y ,.N.M.:.] 6 a v D.D.D.S.Q.XX@X",
"O % : d l c n S.Q.].&XM.=.Y K ) ) K Y ,.N.N.,.Y K ( / ^ M ~ -.-.~ M ^ / ( K Y ,.N.N.,.Y K ) ) K Y ,.N.M.:.A 2 y l v v n l v L.!.",
"O % 9 y : > d d i 6.#XM.,.Y K ) ) K Y ,.N.N.,.Y K ) ( M J -.g.g.-.J M ( ) K Y ,.N.N.,.Y K ) ) K Y ,.N.N.:.Z < = y a a d : - > 9 ",
"O @ - - + + - = + 8 v.M.,.Y K ) ) K Y ,.N.N.,.Y K ) ( M J -.g.g.-.J M ( ) K Y ,.N.N.,.Y K ) ) K Y ,.N.M.:.A 1 - ; : : > 9 9 9 9 ",
"O + @ @ O O + + o 8 v.M.,.Y K ) ) K Y ,.N.N.,.Y K ( / ^ M ~ -.-.~ M ^ / ( K Y ,.N.N.,.Y K ) ) K Y ,.N.M.:.} 4.a - @ @ 9 H./.^.!.",
"- - - - 9 q q ; + 8 v.M.,.Y N ) ) K Y ,.N.N.,.Y H M ^ / ^ M J J M ^ / ^ M H Y ,.N.N.,.Y K ) ) N Y ,.N.M.=.#.9.v y = = p Q.oX@X@X",
"l l l v Y.(.(.S.- 7 v.M.,.Y N ) ) K Y ,.N.N.;.U Y J M ^ / ^ M M ^ / ^ M J Y U ;.N.N.,.Y K ) ) N Y ,.N.M.=.} 9.S.v l l v P.(.oX@X",
"v V.S.L. XXXoX!.x 6.#XM.:.Y H N M N J -.f.h.r.&.E Y H M ^ / ( ( / ^ M H Y E &.r.h.f.-.J N M N H Y ,.N.N.:.} 4.v v A.S.S.c v L.!.",
"a l v P.L.Q.Q.Q.!.].*XM.;.U Y ! K M N ~ O.r.h.d.&.T Y J M ( ) ) ( M J Y T &.d.h.r.O.~ N M K ! Y U ;.N.N.,.[ f a a l S.n 9 - > 9 ",
"y d l v S.A.c v Q.`.%Xh.r.&.E Y K ) ) N J O.f.h.r.&.E Y H K K K K H Y E &.r.h.f.O.J N ) ) K Y E &.r.h.f.-.P 3 : : y j p * @ ; q ",
"y u d l A.n 9 - > e $.r.h.d.*.Y K ) ) M N L O.y.h.d.&.U Y Y Y Y Y Y U &.d.h.y.O.L N M ) ) K Y *.d.h.r.@.~ F , @ @ % = % + > H.(.",
"> 9 y d l p % . . # V :.N.N.,.Y H N M ) ) N J O.f.h.r.;.,.,.,.,.,.,.;.r.h.f.O.J N ) ) M N H Y ,.N.N.,.Y N D 4 - - - 9 ; + > H.(.",
"% = y y : * + o o # Z :.N.N.;.U Y ! K ) ) M N L O.r.h.N.N.N.N.N.N.N.N.h.r.O.L N M ) ) K ! Y U ;.N.N.,.Y N ' g n l v Q.H.; + ; i ",
"O @ ; - @ % ; q q 5 P -.f.h.r.&.E Y K ) ) ) ) N J O.f.N.N.N.N.N.N.N.N.f.O.J N ) ) ) ) K Y E &.r.h.f.-.J N ` 0.D.D.L. X^.x ; + . ",
"O + @ + O ; H.(.(.I.` ~ O.r.h.d.&.Y N ) ) ) ) M N ~ -.,.,.,.,.,.,.,.,.-.~ N M ) ) ) ) N Y &.d.h.r.O.~ N M ` 0.D.D.D.L.Q.(.H.- . ",
"+ + * = = p Q.OX@X}.2.M C @.f.h.y.@.L N K K M ) ) N J Y Y Y Y Y Y Y Y J N ) ) M K K N L @.y.h.f.@.J N M N ` w.V.S.S.S.L. X^.x 9 ",
"O * a l l v P.(.OX}.2.B M L @.y.h.f.@.Y Y ! N ) ) M N K K K K K K K K N M ) ) N ! Y Y @.f.h.y.@.L N M N Q P f l V.D.S.D.L.Q.^.(.",
"O - n F.D.D.S.L.{.'.3.N M N Y &.d.h.y.&.E Y H K K K M ) ) ) ) ) ) ) ) M K K K H Y E &.y.h.d.*.Y N M N ~ -.$.w y l A.S.S.l v Y.(.",
"O - n F.D.D.D.P.L.Z.#.Q N N Y E &.y.h.d.&.U Y Y Y ! N ) ) ) ) ) ) ) ) N ! Y Y Y U &.d.h.y.&.E Y N N J -.f.i.8 = y l S.n 9 - > 9 ",
"O * p l l l l l l 4.} Y H H ! Y Y @.f.h.r.;.,.*.E Y H N N K K K K N N H Y E *.,.;.r.h.f.@.Y Y ! K H Y ,.N.n.8 + = y j j i 9 9 9 ",
"O + * = = = = = - 2 A R Y ! H N N L @.r.h.N.N.d.&.U Y Y Y Y Y Y Y Y Y Y U &.d.N.N.h.r.@.L N N H ! Y T :.N.n.8 O + % * i J./.!.!.",
"- - - = = - 9 ; @ <  .*.E Y H N M N J O.f.N.N.h.r.;.,.,.,.,.,.,.,.,.,.,.;.r.h.N.N.f.O.J N M N H Y E &.s.h.p.e % = = = p Q.oX@X@X",
"l l l l l k.Q.H.; 7 i.h.*.T Y J N M N ~ -.,.,.r.h.N.N.N.N.N.N.N.N.N.N.N.N.h.r.,.,.-.~ N M N J Y T &.d.h.s.$.w y l l l v P.(.oX@X",
"v v v v S.E. XY.> r i.h.r.;.,.-.~ N M N J Y Y @.f.N.M.M.M.M.M.M.M.M.M.M.N.f.@.Y Y J N M N ~ -.,.;.r.h.f.-.S 3 d l A.S.S.S.P.Q.!.",
"a a a l v P.L.b ; < | r.h.N.N.d.-.J N M N N N L @.,.,.;.;.;.;.;.;.;.;.,.,.@.L N N N M N J -.d.N.N.h.r.-.~ F , - y l A.D.D.n p 9 ",
"y y y a v D.D.l - # V ;.M.-X-XM.>.Y K ) ) ) ) K Y R R T T T T T T T T R R Y K ) ) ) ) K Y >.N.-X-XM.;.Y N D $ @ : a v D.D.l = . "
};
