/* XPM */
static char *result[] = {
/* columns rows colors chars-per-pixel */
"64 64 229 2 ",
"   c #7ba525",
".  c #7ba525",
"X  c #7ba525",
"o  c #7ba525",
"O  c #7ba525",
"+  c #7ba525",
"@  c #7ba525",
"#  c #7ba525",
"$  c #7ba525",
"%  c #7ba525",
"&  c #7ba525",
"*  c #7ba525",
"=  c #7ba525",
"-  c #7ba525",
";  c #7ba525",
":  c #7ba525",
">  c #7ba525",
",  c #7ba525",
"<  c #7ba525",
"1  c #7ba525",
"2  c #7ba525",
"3  c #7ba525",
"4  c #7ba525",
"5  c #7ba525",
"6  c #7ba525",
"7  c #7ba525",
"8  c #7ba525",
"9  c #7ba525",
"0  c #7ba525",
"q  c #7ba525",
"w  c #7ba525",
"e  c #7ba525",
"r  c #7ba525",
"t  c #7ba525",
"y  c #69972D",
"u  c #669F2D",
"i  c #6D9B2B",
"p  c #6E9A27",
"a  c #709B2A",
"s  c #608F32",
"d  c #619D34",
"f  c #669836",
"g  c #769B36",
"h  c #56A137",
"j  c #5CA335",
"k  c #56A139",
"l  c #5CAA3B",
"z  c #58A138",
"x  c #66A22D",
"c  c #6CA22C",
"v  c #6EA82E",
"b  c #6BA329",
"n  c #76A426",
"m  c #7CA524",
"M  c #7AA826",
"N  c #76A629",
"B  c #7AA62C",
"V  c #70A92E",
"C  c #7DA82C",
"Z  c #67A531",
"A  c #6AA630",
"S  c #67A833",
"D  c #6BA931",
"F  c #6EAA39",
"G  c #64A43B",
"H  c #7DA533",
"J  c #7DAD3A",
"K  c #75A735",
"L  c #238C4B",
"P  c #288748",
"I  c #3C8344",
"U  c #348D43",
"Y  c #3A8D41",
"T  c #30824B",
"R  c #2B954B",
"E  c #299B4E",
"W  c #359343",
"Q  c #399341",
"!  c #369946",
"~  c #3A9A43",
"^  c #3A934C",
"/  c #3B9E4E",
"(  c #35964B",
")  c #2A9855",
"_  c #359859",
"`  c #3E865C",
"'  c #3AA54D",
"]  c #3DA94C",
"[  c #37A64F",
"{  c #2DA351",
"}  c #2DAC58",
"|  c #3DAC53",
" . c #3EA958",
".. c #2DB65E",
"X. c #3BB554",
"o. c #2A9864",
"O. c #399866",
"+. c #7ba525",
"@. c #7ba525",
"#. c #7ba525",
"$. c #7ba525",
"%. c #7ba525",
"&. c #7ba525",
"*. c #7ba525",
"=. c #7ba525",
"-. c #7ba525",
";. c #7ba525",
":. c #7ba525",
">. c #7ba525",
",. c #7ba525",
"<. c #7ba525",
"1. c #7ba525",
"2. c #7ba525",
"3. c #7ba525",
"4. c #7ba525",
"5. c #7ba525",
"6. c #7ba525",
"7. c #7ba525",
"8. c #7ba525",
"9. c #7ba525",
"0. c #7ba525",
"q. c #7ba525",
"w. c #7ba525",
"e. c #7ba525",
"r. c #7ba525",
"t. c #7ba525",
"y. c #7ba525",
"u. c #7ba525",
"i. c #7ba525",
"p. c #7ba525",
"a. c #7ba525",
"s. c #7ba525",
"d. c #7ba525",
"f. c #7ba525",
"g. c #7ba525",
"h. c #7ba525",
"j. c #7ba525",
"k. c #7ba525",
"l. c #7ba525",
"z. c #7ba525",
"x. c #7ba525",
"c. c #7ba525",
"v. c #7ba525",
"b. c #7ba525",
"n. c #7ba525",
"m. c #7ba525",
"M. c #7ba525",
"N. c #7ba525",
"B. c #7ba525",
"V. c #7ba525",
"C. c #7ba525",
"Z. c #7ba525",
"A. c #7ba525",
"S. c #7ba525",
"D. c #7ba525",
"F. c #7ba525",
"G. c #82963F",
"H. c #81A624",
"J. c #83A62B",
"K. c #8EAB2E",
"L. c #83A92A",
"P. c #90AB2D",
"I. c #8FA13A",
"U. c #85AB34",
"Y. c #93A53D",
"T. c #96AC36",
"R. c #9BB03B",
"E. c #819845",
"W. c #80A946",
"Q. c #80A148",
"!. c #83A84B",
"~. c #86A245",
"^. c #92A640",
"/. c #96A64A",
"(. c #81B140",
"). c #9CB14E",
"_. c #90AD52",
"`. c #93B556",
"'. c #ADB646",
"]. c #A3B84F",
"[. c #AAB54C",
"{. c #B2B644",
"}. c #B7B64D",
"|. c #A2A951",
" X c #9E936F",
".X c #979174",
"XX c #B59965",
"oX c #B29666",
"OX c #B29D7F",
"+X c #AE9868",
"@X c #BCA77B",
"#X c #BBA87C",
"$X c #B7A57D",
"%X c #C3BB4E",
"&X c #C0A87A",
"*X c #83C77D",
"=X c #D8C35C",
"-X c #329D94",
";X c #3CA28F",
":X c #3CA294",
">X c #3BA198",
",X c #2CA399",
"<X c #489C86",
"1X c #4AA68A",
"2X c #52A684",
"3X c #5DA39D",
"4X c #7EAD8E",
"5X c #6AAA9A",
"6X c #68A699",
"7X c #7BAC91",
"8X c #7BAB99",
"9X c #6AB896",
"0X c #70BC85",
"qX c #5A9EA2",
"wX c #42A6A5",
"eX c #5BA9A3",
"rX c #69AAA2",
"tX c #7EAFB3",
"yX c #7EC982",
"uX c #71C586",
"iX c #60C490",
"pX c #9C998B",
"aX c #B19D80",
"sX c #AD9982",
"dX c #80AD8F",
"fX c #9AA48D",
"gX c #AFA386",
"hX c #80AFB2",
"jX c #D2A796",
/* pixels */
"m m m n m P.%X%XT.S ] 7.S : m m m S X.] S m m m m m m Z Q Q u D y.| S m m : m m H.z.hXtXN.: m m m m H.u ~ ) ....E ; u H.H.D | ..",
"m m m m m U.].].U.c 0.8.m.k.C m m c 5.q.J K.m m m m m u Q Q u V 5.q.J I.J.a : m c m.7X8XD.j.B m i i m c 7 ~ a.| R = u n c G 5.7.",
"m m m m m V B.B.K n v g.7X4Xk.: m N c J '.{.K.n m m m Z Q Q u n v j.+XXXY.m : b 0.u.M._.7XdXW.i 2 2 i n x c D w     t D 0.8.l v ",
"m N u c n v 5.5.v m : k.7X8XD.j.C m m K.'.{.K.m m m i 9 4 7 u m : I.XX+Xg A x.m. .' S h.9X5Xz.y $ + e V M m m i , 2 J.J 7.] c : ",
"m i 5 5 u m D v n m M N j.D.8X4Xj.m m H.K.K.J.H.m i 2 , q c m m m J.Y.g -.,.5X5XO.~ x F S.S.F y X @ / 5.v m m n i g {.).i.~ u H.",
"m c 5 5 c m m m m m m : b g.7X4Xk.m m m m n i u y 1 X 2 i m v v m m m u 8 ,.eXeXO.; u N l 5.v i C.` @.6.c m m m K.R.[._.-.5 j A ",
"n n x x n m m m m m M v l 8.m.k.C m m m m x 7 Y I , 9 i m V 0.0.v m m n u d.S.#.) ; x n v A m l.6XqXO.Q x m m K.{.[.f.-.q Z 9.7.",
"/.^.J.m m n y y n C z.M. .] S M i u N m m x ~ L o X y H.m D 8.8.q i n m v l ] { ! 8 x m : n i f.dX6XO.Y x m m K.{.).=.- u V 0.| ",
"jX@XY.n m i 3 3 u W.7X6XO.~ x b 5 7 c m H.A 9.) O . t m m n v q , 2 a V 0.' E ~ 0 c m m m c 5 =.f.f.^ Y u m m J.K.K Q Q d m D D ",
"jX&X).K.H.i 3 X r 2.7X6XO.; x i 7 7 u m m A 6.O.:.4.g M v v m p , X r G 8.[ R Q c m m m m u 5 6 q > 5 6 j v m m m d Q Q u H.m m ",
"/.|.}.{.K.n p s , %.2.f.^ Q u m i i N m m y Y >.pXaX^.v 5.5.v n i s , , q j W ; i H.m m m n x q 5 4 > j 8.8.v m m u Q W d m m m ",
": L.'.'.K.m v w + $ y b 5 5 c m V v N m a 9 X 4.aX@XQ.j 9.q.!.Y.K.y $ $ p c 7 8 l A i i m m H.u Q - u V 0.0.v m H.c 5 5 c m m m ",
": m K.K.H.V 0./ @ X y m x x m c 0.0.D i 2 , r g ^.Q.-.; j !.#X#XY.t   + y m b j 9.6.$.2 i m H.u Q W u n V D N H.m N c i m m m n ",
"m m m n x j 5.6.$.3 i m H.m V l | ] A y $ + p m m u 5 5 u ^.@X@XQ.> , 2 p B d.w. .) O $ y H.m c 5 5 c m m m m a i i m m m m m m ",
"m m m x 6 =.j A u a N m M D t.X.{ ~ c y + $ y H.m n u i m J.^.3.-.4 9 a a h.2X<Xo.P o $ y m m N c c n m m H.H.y 2 2 a H.m m m m ",
"m m m x 5 5 i m V D M C W.m.a.} ! 8 c i , , q v M m m m m m m u - - u N K A.wX-X_ 4 + , G v n m m m m n V D N t + + w D N N D A ",
": m m n u x m c 5.0.v k.dX5X@.! 0 c n m p q 9.0.v m m m m m m u - = c h.2X>X+._ w p p d 9.5.V m m m m c 5.5.D y X @ ' 0.D V 0.| ",
"f.d.N m m J.K.J y.] x k.4X6XO.; u m m J.I.j.y.] S m m n v v m u 8 4 q ;.2X;Xo.; u C h.w. .] c m m C j.m. .] D a 2 $.6.0.V v 5.y.",
"wX2Xd.m m K.{.).*.~ x C k.n.^ ; u m m I.XX X,.~ x m m S 0.0.v m i q 6 =.e.;.( ; u d.2X;Xo.~ x : : j.dX5XO.! x m i f c v m N v S ",
"wX2Xd.: : U.].`.*.; d H.m x ; W j v n I.XX X:.- u H.K.J y.' S m H.u 5 6 n u ; Q u h.2X;Xo.; u C k.D.rX3X<.5 j v m m i i N m m m ",
"n.d.B m m V c.i.R Q Z m m u Q R ' 5.v J.Y.3.Q Q u K.{.).*.! x m H.m x b m u U ; u B h.;.( = u k.4XrX<X<.w q 8.0.v a , , i H.m m ",
"m m i u n A ] { ! 5 i m m c 7 Q ] 0.v m : u - =.g R.[._.;.5 c N c v m H.H.u 5 5 x H.H.x ~ ; u j.dX6X_ - u V 8.r.b.x.%., 1 i N m ",
"m b 5 5 i Z ~ ! 0 c N m m N c A A v m m m u U =.).[.f.-.d c n v 0.8.c : m N c u m m m u W - u J.W.2.( - u m c b.*X*Xx.1 , 2 i m ",
"m c 5 5 c Z Q Q y H.m m H.n a i n n c x m x 7 ;.`.`.=.- e a m v 5.8.B.d.B m m m m m m c 8 =.j V m b 4 5 c m m U.*X*XU.y + $ y m ",
"m n c c m u Q Q u H.m m m i 2 2 i c 5 5 c m i G s.u.( P + 2 i M N w.1X2Xd.m m m m m m n c j 9.0.b n a x n m m C v.v.L.y + $ t M ",
"m m m m m u 5 6 j D N m a 9 , , a i 5 5 u m m v 0.' R P o $ y H.m d.2X1Xd.m m m m M v v m v 0.u.m.k.C m m n v v n n V d , 2 i H.",
"m N m m m N i j 8.0.D p , , 1 i m m c u N m m n A j ( P o $ i H.m N d.d.B m m H.: c 5.5.v n c m.7X4Xk.m : c 0.0.v v 5.9.q a m m ",
"m m m m m H.P.J y.] A y $ $ y M D D n m m m m m m u Q P + , q D n m m m c u y f 2.p.| ] S m : k.7X4Xj.B j.m. .] c v 5.9.j A S A ",
"m n m n n K.{.).*.~ c y X $ y v 8.5.v m m m m m m u Q U e d 9.0.v H.m c 7 =   :.<X:Xo.~ x m m H k.j.N k.4X5XO.~ u m V j 6 ~ 6.7.",
"N m m J.K.R.[._.-.6 j d , , i v 0.q.!.Y.J.m n m m c 7 7 c V 5.5.c m H.x Y T + ` -X,Xo.- u m m m m m m k.dX6XO.; u H.H.u 5 ^ ] 7.",
"m m m K.{.].f.-.d j 8.9.q i n N c !.$X#X^.: m m m n u i m N v v N m m y + + e w @.#.) ; u m m m m m m C j.n.^ Q u m H.m c A D S ",
"m m c J '.).=.- u V 0.q.U.K.H.m m Y.#X#Xl.u n m m N V V n m m m m N i 9 , 2 i A 9.{ ( 5 j V M m m N D c x > 5 7 u n i i N m m m ",
"m c l q.U.K Q Q u m v J '.{.K.: m L.Y.Q.=.5 c m m v 0.0.D m m H.m i 2 , 1 a C c ~ ~ 0 j 8.0.V m H.D 0.6.~ 6 q c m i , 2 i m m m ",
"N.M.| 7.S u Q Q u m m U.].].U.m m n i 9 4 5 c J.Y.N.y.] A m v D N y $ $ y m m u U Q u V 0.8.d a n V 0.[ R Q u m m y $ $ y m m m ",
"tX5XO.~ u u ~ Q u m m N B.B.K H.m i 3 , e b n I.@XgXV.; x v 5.5.D y $ $ y H.m x Q Q c N V q , 2 i N V k W Q d m H.y $ + y m m m ",
"tX6XO.- c i 7 7 c m H.v 8.9.l V m i 3 X r g /.|.gXpX1.8 u v 5.5.V i $ $ y m m c 5 5 c m m a , X s i m v 7 5 c m v q , , i m m C ",
"z.n.^ ; u n c i n m m N D l 8.0.D m i 1 , 4.OXgXF.1.w c n n v v M y $ $ y m H.n x x m m m m i 1 , 2 i m u c n v 0.9.q i n m m n ",
"m c 5 5 c m V v m n i i m V 8.9.j c m y X * pXfX<.W h N n m m m c 9 , 2 i N v v m : m m m m H.y $ + y H.H.m m A 8.q.J P.H.m C m ",
"m m x c m D 0.0.V p , 2 i m V j 6 7 c y $ # V.Z.( R ' 5.v m H.u 5 6 9 a m v 5.5.v m m m n m m i $ + y m m m m N v U.'.{.K.m m m ",
"m m m m i d 8.u.g.2.%.X 1 a m u 6 7 i a 2 $.6.' E R ' q.!.Y.J.u 4 =.j D m V 8.r.b.k.J.m m N v q , , w V N m m m m K.{.'.H u n m ",
"m m m i 2 , q m.7X7X2.9 , 2 i m c c m a a u v h W W h !.$X#X^.n u j 9.0.D m c b.*X*XJ m m D 5.8.d d 8.5.c m m C m J.K.H 7 6 c m ",
"m m m y $ $ y W.dX7Xk.y X + y m m N D v M m H.u Q Q x Y.&X#XI.m : V 5.0.A m m k.*XyXb.v m D 0.0.v V 5.q.J P.H.m m n a 9 5 6 j D ",
"m m m y + $ y C k.k.J.y X $ t H.H.v 8.0.v : m u Q Q u J.Y.^.L.m m m v D N m m C v.b.s.t.V m V D M N c J '.{.P.m m i 3 X 9 j 5.7.",
"m n v q , 2 i m : n x e , , i m m v 0.8.m.j.C a 5 5 c m i p N N c u m m m m m m M S t.t.V a a p n m m U.].].K u t 9 , &.G.j.y.} ",
": v 0.9.q a a H.m i 7 6 9 i m m m m v m.7X7Xk.m u c m i , , i c 5 5 c m m m m m M n v D M i , 2 y m m K B.u.=.Y   , t G.oX X,.R ",
"g.M.8.0.V m m m m u 7 5 c m v D n m : j.7X7Xm.v n m a 1 X 2 a u Y Y d H.m m m m M M m m c e + + y m m v 5.[ { L o X t I.XX X*.L ",
"wX1Xw.c m H.m m m N c i m v 5.5.v m m C k.m.u.5.v a 2 , t a n u + I y m m m m m m m m x 7 I o   u m H.m D l [ ) O X y J.I.3.$.L ",
"wX2Xd.n v D N m m m m n h.p.| ] A m m m m c 5.5.V y + + q V N p 2 , 9 a m m A D M m m x ~ R I 3 p M v v m D 0.' T < u m : x ~ L ",
"f.F B A 5.5.v m m m H.h.2X>Xo.~ x H.m m m n v v N y . O ' 0.v m a s X 2 p c 0.5.v m m S ] ' w p a D 0.0.v m v j U Y u H.m u Q L ",
"b b a A 5.8.w.d.B N F A.<X-X_ 6 j v m m n m m m c f 4.* _ ] v m H.i X @ d.c.y.' A m m c 5.q.!.Y.J.V 0.8.v m m c 5 5 c m m c 5 Q ",
"Q 7 n m v w.1X2Xd.d.A.>X+._ w j 8.0.v m : m m x 8 >..X.X,.~ x H.H.y + * 0XuX@.~ x m m n v !.#X@XY.n v v n m m n c i N m m n c u ",
"L Q u m m d.2X2Xh.d.wX,Xo.= 9 d 8.8.m.j.B m m c 8 >..X.X:.W h c M i ,.V.9X0Xi.8 c m m m m Y.&X$XQ.u n m m M m n D V N m m m H.m ",
"L Q u m m B d.d.N F @.#.) P + , d m.7X7Xj.: m N b j p.Z.( R ' 5.v k.0X9XS.<.e.x m m m m m J.^.Q.-.4 i H.m m n b 0.0.v m m m m H.",
"Q 7 i H.m m m m x j 5.' R P o   y k.4X7Xf.x n m v l ] { ( ^ 7.0.v v.yXiX_ ; u m v Z t i N m m c 4 5 x n a g ^.x.y.' S m D A A u ",
"u c n m m m m i 8 6 j j W P o X y L.k.f.=.5 i V 0.| E ( q c S c M F s.#.) = c V 0.6.$.2 i m m m u x m i 3 4.OXgXV.; x V 5.] ^ ; ",
"m N D D N m m c 5 5 c c ; P I 2 a m : x 5 5 c V 0.' R Q x : m m m v 0.X.R Q A V 0.6.$.X s t A D m : m t . * OXgX,.- u V 0.] R L ",
"m v 0.8.D H.m N x c m u Q U e i a H.: n u u a m V k W Q u m m m m M v 0 W Q u n v A t s , $.6.0.v m m y $ % 3.j.=.Q u N V j W L ",
"m v 0.0.D n i i m H.H.u 5 5 x m V D m m m H.m m m i 5 5 i H.m n i i m x W ~ u m H.m m y $ @ ' q.!.^.J.u $.I e q 5 6 i m a s 6 ~ ",
"m n c D N a 2 2 i H.m n c x m c 0.0.V m m m H.m m N c c m m m i 2 2 i c Q Q u m m H.m t $ + 0 !.#X@XY.c *.E W 6 q c m i 2 , 9 x ",
"m m m m H.i 2 X 1 i n m m L.K.J 7.' A m m N v D N m m m D D N t $ $ y c 5 5 c m m m m i 2 , y ^.#X@XQ.j 9.| R Q u m i e I $.y m ",
"n m m m m m i 1 X 2 i m m K.{.).*.~ Z m H.D 5.5.D m H.v 5.0.v y $ + t m c c n m m m m n i i n J.Y.Q.-.4 j l W Q c a 2 I ) 6.v m ",
"m m m B v v N y $ $ u m m K.{.).=.- d H.m D 5.5.V m i 0 [ 9.v i 2 2 i H.m m m N v v N m m m m n m x 5 8 i c 5 5 s f X $.6.q.U.P.",
"m m m D 0.0.V i $ $ t m m J.K.K =.- d m m m v v m u 5 Q R ^ A n a i a m m m m D 5.5.D m m m m m m n u c n m c q , , 9 u S U.'.%X",
"n m m S X.] F a $ $ t m m m m u Q Q u m m m m m m t - L L Q u H.m m m m C m m A y.| A H.m N m m m m m m m m H.y $ $ p m M T.}.=X"
};
