/* XPM */
static char *_6b75087f1184557e6e5dce085c8d5d38VUHH8wEvstqOrdy[] = {
/* columns rows colors chars-per-pixel */
"64 64 133 2 ",
"   c #7ba525",
".  c #5B3401",
"X  c #5E3908",
"o  c #603903",
"O  c #613C08",
"+  c #6F4205",
"@  c #6E4309",
"#  c #724406",
"$  c #724609",
"%  c #7C4E09",
"&  c #7F500A",
"*  c #8C5B07",
"=  c #81520A",
"-  c #8E5D09",
";  c #965F0B",
":  c #845A16",
">  c #825A19",
",  c #93610C",
"<  c #8F621A",
"1  c #906317",
"2  c #92651B",
"3  c #956A1E",
"4  c #95721E",
"5  c #AA6D0C",
"6  c #BC7A0D",
"7  c #886325",
"8  c #956B26",
"9  c #957328",
"0  c #83653D",
"q  c #89693B",
"w  c #96733D",
"e  c #AA7B20",
"r  c #A27C2D",
"t  c #C47F0E",
"y  c #866840",
"u  c #8A6C46",
"i  c #B9830B",
"p  c #AC822E",
"a  c #AD8336",
"s  c #BD923C",
"d  c #C4800E",
"f  c #C88D0E",
"g  c #D48A0F",
"h  c #DA8E0F",
"j  c #CC930E",
"k  c #DC920E",
"l  c #C18419",
"z  c #CF9A1C",
"x  c #E29C06",
"c  c #E09B0D",
"v  c #E09B12",
"b  c #E09E1A",
"n  c #E3A30D",
"m  c #E8A710",
"M  c #E7AA17",
"N  c #E7AB1B",
"B  c #EDB215",
"V  c #CC9C36",
"C  c #C2963B",
"Z  c #D8A322",
"A  c #D4A73D",
"S  c #E6A729",
"D  c #ECB523",
"F  c #F0B720",
"G  c #EFBD34",
"H  c #EAB53B",
"J  c #EFBD3B",
"K  c #F3BF34",
"L  c #A4854A",
"P  c #D6AB49",
"I  c #DAB54D",
"U  c #DDBB51",
"Y  c #DEBF5B",
"T  c #E0BD51",
"R  c #D4B367",
"E  c #DAB668",
"W  c #E1BE6E",
"Q  c #D7CC47",
"!  c #D8C54B",
"~  c #D7CC4A",
"^  c #EEC24F",
"/  c #F5C440",
"(  c #F3C64E",
")  c #F6C952",
"_  c #F9CC55",
"`  c #F1C75C",
"'  c #F9CE5F",
"]  c #F4D050",
"[  c #F1DF5D",
"{  c #F5E35B",
"}  c #FAE95F",
"|  c #FAF55F",
" . c #F8F85C",
".. c #D9CE69",
"X. c #F5CB6B",
"o. c #FAD463",
"O. c #FAD961",
"+. c #F6D16F",
"@. c #F4D171",
"#. c #F7D47B",
"$. c #FDE664",
"%. c #FBF562",
"&. c #F9F961",
"*. c #F9FA69",
"=. c #F3E97B",
"-. c #F9FA7D",
";. c #C0B09E",
":. c #F4DA9A",
">. c #FBE58D",
",. c #FAFB86",
"<. c #FBF58B",
"1. c #FCFD89",
"2. c #FBF99D",
"3. c #D7C6A7",
"4. c #DCC9AA",
"5. c #DBD1AA",
"6. c #E2D9AD",
"7. c #FBE4A0",
"8. c #FFE9A3",
"9. c #F9E2AD",
"0. c #FDFCA1",
"q. c #F5E3B9",
"w. c #FBE9BB",
"e. c #FAF1BD",
"r. c #FCFDBD",
"t. c #DAD2CA",
"y. c #FEFFC2",
"u. c #FDF6CA",
"i. c #FFFACD",
"p. c #FBEFD4",
"a. c #FDF3DE",
"s. c #FEFEDE",
"d. c #FEFDE2",
/* pixels */
"                                                                                                                                ",
"                                                                                                                                ",
"                                                                                                                                ",
"                                                                                                                                ",
"                                                                                                                                ",
"                                                                                                                                ",
"                                                                                                                                ",
"                                                                                                                                ",
"                                                                                                                                ",
"                                                                                                                                ",
"                                                                                                                                ",
"                                                                                                                                ",
"                                                                                                                                ",
"                                                                                                                                ",
"                                                                                                                                ",
"                                                                                                                                ",
"                                                                                                                                ",
"                                                                                                                                ",
"                                                    # # # # # # # # # #                                                         ",
"                                                    2 3 4 4 4 4 4 4 3 2                                                         ",
"                                                + < C I ! ~ ~ ~ ~ ! I s > .                                                     ",
"                                                < p T $.%.&.&.&.&.%.$.U r >                                                     ",
"                                            # 2 C T { %.&.&.&.&.&.&.%.[ U s : .                                                 ",
"                                            # 3 I $.%.&.&.&.&.&.&.&.&.%.$.Y L 0                                                 ",
"                                            # 4 ! %.&.&.&.&.&.&.&.&.&.| | =.6.;.y o                                             ",
"                                            # 4 ~ &.&.&.&.&.&.&.&.&.&. . .1.d.t.u o                                             ",
"                                            # 4 ~ &.&.&.&.&.&.&.&.&.&. . .1.d.t.u o                                             ",
"                                            # 4 ~ &.&.&.&.&.&. . . . .*.-.0.i.3.q o                                             ",
"                                            # 4 Q  .&.&.&.&.&. . . . .-.y.i.8.R 7 O                                             ",
"                                            # 9 ..,.*. . . . .*.-.1.1.2.e.9.X.V : O                                             ",
"                                            # w 5.y.-. . . . .-.r.d.d.e.@.H S l = O                                             ",
"                                            # w 4.i.0.,.,.,.,.2.u.a.p.:.H x k 6 = O                                             ",
"                                            # 8 E 8.i.s.s.s.s.u.7.#.` H b k k 6 = O                                             ",
"                                            # 2 C W q.d.s.s.d.w.+.G M c k h k 6 = O                                             ",
"                                                1 a W >.<.<.>.@.J N c k h h k 6 = O                                             ",
"                                                @ 2 P O.} { ] J N c k h h g d 5 % O                                             ",
"                                                # 2 P o.O.] G N v k h h h t , %                                                 ",
"                                                # 2 A _ ' ( D n k h h k k 6 & X                                                 ",
"                                                $ , z K _ ( D n k h h k k 6 & O                                                 ",
"                                                $ - i Z ^ ) D n k h h g d 5 % O                                                 ",
"                                                    * e I ) D n k h k d , %                                                     ",
"                                                    @ 2 A / D n k g d 5 % X                                                     ",
"                                                    $ , z F B m c t ; %                                                         ",
"                                                    $ - i j j f d 5 % X                                                         ",
"                                                        - , , - = %                                                             ",
"                                                        $ $ $ @ O O                                                             ",
"                                                                                                                                ",
"                                                                                                                                ",
"                                                                                                                                ",
"                                                                                                                                ",
"                                                                                                                                ",
"                                                                                                                                ",
"                                                                                                                                ",
"                                                                                                                                ",
"                                                                                                                                ",
"                                                                                                                                ",
"                                                                                                                                ",
"                                                                                                                                ",
"                                                                                                                                ",
"                                                                                                                                ",
"                                                                                                                                ",
"                                                                                                                                ",
"                                                                                                                                ",
"                                                                                                                                "
};
