/* XPM */
static char *_869fbef1b0a4cf480e6130aceeb1dbcjsG3VCoBIhjERB69[] = {
/* columns rows colors chars-per-pixel */
"64 64 171 2 ",
"   c #7ba525",
".  c #525D39",
"X  c #526037",
"o  c #54613A",
"O  c #57683D",
"+  c #596C3E",
"@  c #5D733E",
"#  c #60773F",
"$  c #61793F",
"%  c #545D41",
"&  c #575D4C",
"*  c #595F4E",
"=  c #575951",
"-  c #595B53",
";  c #5C5C5C",
":  c #576143",
">  c #586344",
",  c #576840",
"<  c #5B6D43",
"1  c #5B624B",
"2  c #5E6D4A",
"3  c #5E7241",
"4  c #5F7048",
"5  c #5D6850",
"6  c #5F6158",
"7  c #616E4E",
"8  c #607642",
"9  c #647B43",
"0  c #687E46",
"q  c #63734C",
"w  c #66794C",
"e  c #697C4C",
"r  c #606457",
"t  c #636C53",
"y  c #61645B",
"u  c #646B5C",
"i  c #686D5F",
"p  c #657352",
"a  c #697656",
"s  c #677850",
"d  c #6B7B52",
"f  c #67715A",
"g  c #6A755B",
"h  c #6D7A5A",
"j  c #707E56",
"k  c #717E5C",
"l  c #5F5F60",
"z  c #605F60",
"x  c #646464",
"c  c #666A64",
"v  c #696E63",
"b  c #696769",
"n  c #676968",
"m  c #6B6D6C",
"M  c #6C7362",
"N  c #6F7861",
"B  c #6E716D",
"V  c #707666",
"C  c #727B64",
"Z  c #73756D",
"A  c #757A6D",
"S  c #6F6E70",
"D  c #706E70",
"F  c #6F7170",
"G  c #747474",
"H  c #787777",
"J  c #767A71",
"K  c #797D73",
"L  c #777578",
"P  c #787679",
"I  c #7D7C7D",
"U  c #6A8147",
"Y  c #6D814C",
"T  c #70844F",
"R  c #73894F",
"E  c #6E8053",
"W  c #738552",
"Q  c #768A53",
"!  c #798D54",
"~  c #75845A",
"^  c #78865D",
"/  c #798A5C",
"(  c #7B9055",
")  c #768163",
"_  c #798465",
"`  c #7C8A63",
"'  c #7B846B",
"]  c #7F886C",
"[  c #7D8175",
"{  c #7E8179",
"}  c #818B6E",
"|  c #808577",
" . c #818973",
".. c #84877E",
"X. c #82847D",
"o. c #85897D",
"O. c #86887F",
"+. c #85887E",
"@. c #7F7E80",
"#. c #807F80",
"$. c #807F80",
"%. c #818181",
"&. c #818182",
"*. c #828183",
"=. c #838283",
"-. c #848483",
";. c #848385",
":. c #858386",
">. c #858485",
",. c #868684",
"<. c #878587",
"1. c #868587",
"2. c #878687",
"3. c #838283",
"4. c #888787",
"5. c #878881",
"6. c #888982",
"7. c #888A83",
"8. c #898887",
"9. c #8D8F87",
"0. c #8A8B84",
"q. c #878589",
"w. c #878588",
"e. c #888688",
"r. c #888788",
"t. c #898789",
"y. c #89878A",
"u. c #8A878B",
"i. c #898789",
"p. c #898889",
"a. c #8A888A",
"s. c #8B888B",
"d. c #8B898B",
"f. c #8A898A",
"g. c #8B8A8A",
"h. c #8C8B8A",
"j. c #8D8C8B",
"k. c #8B888C",
"l. c #8C898C",
"z. c #8C898D",
"x. c #8D8B8D",
"c. c #8D8C8C",
"v. c #8F8D8F",
"b. c #8B898B",
"n. c #8E9186",
"m. c #8E9286",
"M. c #90918B",
"N. c #90918A",
"B. c #91928B",
"V. c #92948A",
"C. c #92958A",
"Z. c #93958B",
"A. c #92938C",
"S. c #908D90",
"D. c #908E90",
"F. c #908E91",
"G. c #918F91",
"H. c #908E91",
"J. c #969396",
"K. c #979597",
"L. c #969396",
"P. c #989598",
"I. c #999699",
"U. c #99969A",
"Y. c #99969B",
"T. c #9A979A",
"R. c #9D9A9D",
"E. c #9E9A9E",
"W. c #9E9A9F",
"Q. c #9E9B9F",
"!. c #9D9A9D",
/* pixels */
"a.v.P.R.R.m.E @ + + < 3 8 8 8 9 Q ! Q W W W W W ! ! ! ! W W ! ! Q W W ` Z.R.R.Z.` W ! ( ! ! W ` Z.R.R.Z.` T W W W Y 9 9 Y T 9 8 ",
"v.G.J.P.P.9.) d a q 4 3 8 8 9 U Q ! Q W W W W Q ! ! ! ! Q Q Q Q W W Y ^ m.P.P.B.} ^ ! ! ! ! / } B.P.P.B.] ~ W W W Y 9 9 Y e 9 8 ",
"P.J.G.v.G.h...| X.A w @ 8 9 U W ! ! ! Q W W Q ! ! ! ! ! ! Q Q W W Y 0 E O.G.G.v.7. ./ Q ! /  .7.j.G.G.a.X.' ~ W W Y 9 8 9 9 3 3 ",
"R.P.v.a.a.a.z.z.k.X.k w 8 9 Y W ! ! ! ! W W ! ! ! ! ! ! ! ! Q W W W d C X.a.e.e.w.X._ ~ Q ` O.e.a.a.e.-.K A ~ T W T 0 9 8 8 3 < ",
"R.P.v.a.a.a.z.e.1.X.K C w 9 Y W W Q ! ! Q Q ! ! Q W W W Q Q ! Q W ~ ' ..0.e.;.#.I I K ' ~ ^ { ;.e.e.;.K h e 9 0 T W W Y 9 8 3 < ",
"R.K.z.1.e.e.a.e.;.=.=.K s 9 Y W T T Q Q T T Q Q W W W W T T Q Q T ~ | k.k.a.;.#.I I I K ) _ { =.1.1.=.K e $ @ 9 Y W W 0 9 3 + O ",
"R.J.e.=.=.;.e.a.a.1.=.J p 8 Y T 0 0 W W 0 0 T W W W Q Q U 0 W T 0 d [ 1.a.a.a.1.#.I I I K { I =.=.=.=.K d @ @ 8 Y W 0 9 3 + o o ",
"R.J.e.=.=.=.1.e.e.1.=.A q 3 0 Y 0 0 Y Y 9 9 Y W W Q ! Q 9 9 0 Y e h K #.;.1.O.o.| { I I I I I I I I K C w 8 q q e Y 0 9 3 O o . ",
"R.K.z.e.e.1.=.=.=.=.=.A q @ 8 0 Y Y 0 9 8 9 Y W Q ! ! Q 9 8 9 e C K I I I K _ / / ` { I @.I I I I J h w 3 7 M M e 0 Y 0 4 O o . ",
"R.K.z.e.a.a.1.=.I =.=.K h q 8 9 Y Y 9 8 8 8 0 W Q ! ! Q U 9 $ e J I I I H J C ~ Q / ' { X.=.I I I Z w @ + 7 Z J h e Y e q 1 : % ",
"R.J.e.;.e.a.a.1.=.=.1.1.X.A q 3 9 9 8 8 3 3 8 0 T Q ! ! W U 9 w A I I I I I K ' ~ W W _ ..e.e.;.#.A e @ + q J I K C e w f u - = ",
"R.J.1.=.;.1.1.;.=.=.1.a.z.X.a @ @ 8 8 8 q q 8 9 Y W Q Q Q W d h A I =.=.=.#.=.X.' ^ ^ ' ..e.e.1.=.J w 3 q f J @.@.A w q v n ; ; ",
"R.J.1.I I I I I I =.=.1.k.| d @ @ 3 # w M M w 9 Y W W W W ~ A K I #.1.1.=.=.1.4.5.O.O...=.=.=.=.=.A q 4 g Z H I I Z q 2 v c ; ; ",
"R.J.1.I H H H I I I I =.w.X.) w 4 < w h J J h e Y T W W Y ~ { #.@.=.1.1.-.;.e.a.e.e.e.1.#.I I I I J g f J I I I H Z 7 2 v b ; ; ",
"R.J.=.H H H I I I I I #.=.3.X.A q q C K I I J N e 0 T T 0 d K #.#.=.=.;.1.a.a.e.;.3.3.#.I I I I I H J J I I I I I Z 7 7 B m z ; ",
"R.J.=.H H I I I I I I I { =.e.{ a q K 3.=.I I A w 9 Y W e h J I I I I =.1.e.e.1.{ { { K A Z G H H I I #.I I I I I Z f f Z m z ; ",
"R.J.;.I H H I I I I I I I =.3.K w d { w.=.@.@.A e 9 Y ~ C Z H I I I I @.=.3.3.{ _ ^ ^ ~ d g Z H I I @.I I I I I H G Z Z B b ; ; ",
"R.J.;.I I I H G Z Z H I I I @.K h k | w.=.I @.K h e Y j A H H I I =.=.X.{ { { ' ~ W W Y 0 e C J K K I I G G G G G H H G G c ; = ",
"R.J.=.I I I I Z a a M G G I I I K K X.=.=.I I I K C e e Z H I I I =.w...' ~ ^ ~ W W W W Y W ~ ~ d h J L G m m G G H H H G m 1 . ",
"P.v.#.H I I G V w w M G G I I I I I I I I =.=.=.3.{ h h A I I #.@.=... .^ T Y Y Y T W W W W T Y 9 e C M M v m G G H H H I Z 1   ",
"G.a.I G G B m M w w Z G L I I I I I I I I =.1.e.e.-.{ K I I @.#.#.{ ' ^ W Y 0 9 9 0 T W W T 0 0 Y Y e w w p Z G L H H I I Z 1   ",
"a.1.I G B m m M q w M Z G I I I H H H H I #.;.1.e.1.=.#.#.I K K K C ~ Y W T 0 9 8 9 Y W W Y 9 9 Y Y 8 8 w h Z H H H H I I A 2 o ",
"z.1.I G G G G B q 3 w h Z H I H H H H H H I I I =.=.=.=.=.K h e d e 9 0 T W W Y 9 8 9 0 W Y 9 8 9 8 3 q C J H H H H H I I A 7 O ",
"e.;.I G G G G B 7 @ @ w M G H I I I I I L H H I I I K J J C w @ $ 8 9 0 T W W Y 9 8 8 9 Y Y 9 3 3 3 < f H @.I H H H H I I J p + ",
"=.#.I G G m m v 2 @ # 8 q f J @.I I I I H H I I @.K g q q q 4 3 8 9 Y W W T 0 9 8 8 8 8 9 9 3 @ @ < t B I #.I I I H H I I J p + ",
"I I G G m m m v t 2 3 3 @ q C K I I I I I I I I I J f 2 < + < 3 3 9 Y T T Y 9 8 8 8 8 8 8 3 2 2 2 t v G I I I I G G G I I A 7 O ",
"I G G m m m G G v u < @ @ 8 q f J I I I I I I I I H Z g 2 + 3 3 3 3 9 9 9 9 8 8 8 8 3 3 < 4 t v v v G G H I I G G G G H I Z 1 o ",
"G G m m m m G G m v t 2 8 3 + 7 B L I I I I G G G G G Z t 4 8 3 < < 3 8 8 8 8 8 8 3 < < < 2 t v m m G G G G G G m m G G G m 1 . ",
"m m m m m m m m m m v t 4 3 + 2 v F F B G B B m m B F m v t 4 3 + < < 3 8 8 3 3 3 < < 3 3 8 4 t v m m B m m m m m m m B B c ; = ",
"c b b b b n c n n n n y > O O > r c c c n c c c c n n n n u 2 > > , , O + + O O O O O + @ @ O > u c c c c b b b b n c n n x ; ; ",
"n x n n n x l ; ; ; ; - % . . . . 1 y x ; ; x x ; ; ; ; ; ; - - - & . o o o o . . . o o o o X : y y 1 1 y n n n n x l ; ; ; z x ",
"v i i i v i u r r y c c t t t t 7 t m S m b m m b b b b b x ; ; x x t t t t t t t t t t t t t t u r , , t v v v v u r y r u i v ",
"~ ~ j j ~ ~ ~ ~ d C ..z.0.0.0.0.0.0.v.v.z.e.;.;.e.z.z.e.=.G x x G =.0.0.0.0.0.0.0.0.0.0.0.0.0.o.) e 8 8 E ~ ~ ~ ~ ~ d d ~ ~ W ~ ",
"! Q Q W Q R R Q / } A.P.P.P.P.P.P.P.P.P.K.J.v.v.K.P.P.J.v.I x n =.J.P.P.P.P.P.P.P.P.P.P.P.P.Y.A.} ~ d E W Q ! ! Q Q W Q ! ( ( ( ",
"Q W W T U 9 9 E ' 7.v.G.G.G.G.G.G.G.G.v.a.e.a.z.G.v.a.1.1.H x b e.P.L.G.G.G.G.G.G.G.G.G.G.G.G.v.7.O.| ' E U T W U U T Q ! ( ( ( ",
"_ ^ W Y 9 8 w k X.a.a.a.e.e.e.e.a.a.e.1.=.=.1.e.e.1.=.I I G x b z.P.G.e.a.a.a.a.e.1.e.e.a.a.a.a.k.z.z.X.k e Y U 9 9 Y W Q ! ! ! ",
"O. .^ Y 9 w C K X.1.a.a.;.=.=.;.e.e.;.=.I I =.=.=.=.I I I D z b z.P.G.a.a.a.a.e.;.=.=.;.e.a.a.a.k.z.z.1.{ C e 9 8 9 Y W W Q W W ",
"e...^ W d k { =.=.=.;.;.I I I =.a.a.;.=.#.I I I I =.=.#.I m z b z.P.v.1.e.e.e.1.=.=.I =.1.e.e.e.a.a.e.1.3.K e $ 9 0 W W T W ^ _ ",
"3.{ ^ ~ ' X.1.1.=.I I I I I I =.e.a.a.1.=.I I I I =.1.;.I m ; b z.K.a.=.=.=.=.;.1.1.=.I =.=.=.;.e.e.;.=.=.K d 9 Y W Q Q U d [ O.",
"@.{ _ ' 5.z.a.1.#.I I H H I #.1.e.a.a.1.=.I I I I #.1.1.I D z b z.K.a.=.=.=.I =.1.1.=.I I I =.;.a.e.=.I @.K h e W Q ! R 9 d { u.",
"I I { X.4.a.1.#.I I I I I #.1.a.a.a.1.=.=.I I I I I =.=.I D z b z.P.v.e.w.1.=.I =.=.#.I I =.1.e.a.a.=.{ { I J C ~ W Q T 9 d K 3.",
"I I I =.1.1.=.I I I I =.=.1.a.a.a.1.#.I I I I I I I I I G m ; b z.P.v.e.e.1.=.I I #.=.=.=.;.a.a.a.1.=.{ I I I J ~ W T Y e h K @.",
"I I I =.=.=.I I I I I =.1.a.a.a.1.#.I I I I I I I I I G G c ; b z.K.a.=.=.=.=.I I =.1.e.e.a.a.a.;.=.#.I I @.@.K ~ T 0 e C K I I ",
"I I #.=.I I =.=.=.=.=.3.1.e.e.1.=.I I H H H I I K J J G m n ; b z.K.1.I I I I I I =.1.e.e.e.e.1.=.I I I I I I K ~ U 9 d K =.#.I ",
"I #.1.1.=.=.1.e.e.e.e.1.;.=.=.=.=.I I I H H H J h a M m m n ; b z.K.1.I I I I I I =.=.=.=.=.=.=.I I I I I H I A d 9 $ d K #.#.I ",
"I =.1.1.;.;.e.a.a.e.e.1.#.I I I I I I I I I J C w q f m m b ; b z.K.1.I H H H I I I { [ [ { X.=.=.=.=.I I H H Z g w 8 d K #.#.I ",
"I =.=.;.1.a.a.a.1.=.=.#.I I I I I I I @.I K ) E 9 q i m G m ; b z.J.=.H H H I I @.{ _ ~ ~ _ ..e.e.1.=.I I I H G Z h w e K #.#.I ",
"I I I =.1.e.e.1.#.I I I H H H H H I I { { ' ~ T e a M G G m ; b z.J.=.H H H I I { ' ~ T ~ _ ..e.e.1.;.=.#.I I I I A w e A I I I ",
"I I { { =.=.=.#.I I I H H H H I I I @.{ _ ~ W ~ C Z G G G n ; b z.K.1.I H H H K ` Q U e A { X.=.=.;.1.1.=.I I I I A e w Z I I I ",
"I =.=.=.=.I I I I I I I I I H H I I K A ~ T Y j J H H G G n ; b z.K.1.I I I J ' / R 9 e A @.@.I I =.1.1.=.I I @.#.K h a Z H H I ",
"I =.1.1.=.I I I I I I I I I H L I J h e W T 0 d Z H H H G m ; b z.J.=.I I { _ / Q T 9 w A I I I I =.=.=.=.I I I I I A Z G H I I ",
"I =.1.1.=.I I I I I I I @.I I H H Z d 0 Y Y e g Z H H H I G z b e.G.#.G J ' / ! W e e g Z I I @.I I I I I =.=.=.=.#.I I I I I { ",
"I =.=.=.=.{ { { I I I I I @.I I H A j Y 0 e N Z G H H H I G x n =.a.I Z h E Q Q U e M Z G I I I I I I I I =.1.a.a.1.=.I I I I I ",
"I I I @.I { I I I I H H K K I I J V j U 8 q Z H H H H I I G x n I e.I Z w 9 R R 9 q A I H I I I H H H H I =.1.1.a.1.=.I I I I I ",
"I I I @.I I I I I H H Z h h J J f q 9 8 @ q Z H H H H I I G x n I e.I Z w 9 T T 9 e J I I H H H L G H H I I I I =.=.=.I I I I I ",
"H H I I I I I I I H Z h w w Z Z q @ @ 8 q f J I H H H I I G x x I 1.I Z q 9 Y T 0 e C J H H I I H H I I H H H I I =.I I I I I H ",
"H H I I I I I I I J h w 8 w Z Z a @ @ q C K I I I H H I I G x x I =.I Z q 8 Y W T Y e h Z I I I I I I I H H I I I I I I I I H H ",
"H H H H H I I I @.A e $ # q M N w @ + p J @.I I G G G I I G x x G I H B 2 3 0 T T 0 8 q M J I I I I I I I I I I I I I I G G G G ",
"H H H H H H I I I A e # 3 4 w w 9 8 + 7 Z I I G G G G H I G x x G H G v 2 3 8 9 9 9 3 < 2 f J I I I I I I I I I I I I G G m m m ",
"G G G G G J Z Z Z M w 3 < 3 8 8 8 3 3 q M Z J G m m G G G m z z m G m v t 2 3 8 8 8 3 < + 2 M Z J L I I I I G G G G G G m m m m ",
"m m m m B M t 7 7 q 4 < < 3 8 8 3 3 3 8 q t v m m m m B B b ; ; b B m m v t 2 3 8 8 8 3 < < 4 t v B F B B B B m m m m m m m m m ",
"b b b c c r > O O O O O O O @ @ O O @ 3 > 2 u u u c c c c x ; ; x c c c b c 5 > < @ @ @ O O O > r c c b b c c u u u u u u u u u ",
"n n n y 1 : o o o o o o o o o o o o o : * - 1 : : 1 ; ; ; ; ; ; ; ; ; x x x ; * : o o o o o o o : 1 y n n y 1 : : : : : : : : : ",
"x x x 6 %   . . . . . . . . . . . . . % = = %     % = ; ; ; ; ; ; ; ; ; x x ; = % . . . . . . .   % 6 x x 6 %                 . "
};
