/* XPM */
static char *_33e802304a7475e978dcf6b80a5ed13I64Cdb9zsnOWX2sv[] = {
/* columns rows colors chars-per-pixel */
"64 64 253 2 ",
"   c #7ba525",
".  c #171603",
"X  c #101708",
"o  c #1A2509",
"O  c #163608",
"+  c #1A2817",
"@  c #0F340F",
"#  c #27271A",
"$  c #25371A",
"%  c #312C10",
"&  c #282A25",
"*  c #37352A",
"=  c #353935",
"-  c #2F3327",
";  c #202210",
":  c #443A1A",
">  c #413C28",
",  c #453E35",
"<  c #185015",
"1  c #2A501A",
"2  c #1B691B",
"3  c #19771D",
"4  c #1D5A29",
"5  c #2A4627",
"6  c #35472B",
"7  c #285A26",
"8  c #35562A",
"9  c #3A4439",
"0  c #385736",
"q  c #2A5532",
"w  c #197727",
"e  c #1A6B2D",
"r  c #276529",
"t  c #376938",
"y  c #37773A",
"u  c #2F6E31",
"i  c #256A1F",
"p  c #484528",
"a  c #454639",
"s  c #475839",
"d  c #585338",
"f  c #564F2C",
"g  c #655927",
"h  c #625835",
"j  c #45663B",
"k  c #546F36",
"l  c #706D30",
"z  c #595B19",
"x  c #3B3F40",
"c  c #3A5542",
"v  c #3B6645",
"b  c #397846",
"n  c #36704C",
"m  c #474A45",
"M  c #574B44",
"N  c #584B44",
"B  c #5B4F48",
"V  c #554E4B",
"C  c #4A5848",
"Z  c #5D514B",
"A  c #555849",
"S  c #585A55",
"D  c #4D5752",
"F  c #645948",
"G  c #625651",
"H  c #655A55",
"J  c #685C57",
"K  c #695E5A",
"L  c #665D59",
"P  c #486547",
"I  c #54684B",
"U  c #4A784A",
"Y  c #4C6652",
"T  c #5A6958",
"R  c #4A7755",
"E  c #5C745C",
"W  c #557C58",
"Q  c #567446",
"!  c #6D625D",
"~  c #656856",
"^  c #70645F",
"/  c #756E54",
"(  c #63745A",
")  c #677658",
"_  c #6F734C",
"`  c #5C5D62",
"'  c #5C6963",
"]  c #597562",
"[  c #6D6563",
"{  c #696A66",
"}  c #736965",
"|  c #756C6A",
" . c #766B66",
".. c #687967",
"X. c #7A706E",
"o. c #767A68",
"O. c #7D7574",
"+. c #7B7A75",
"@. c #6B7173",
"#. c #8A7838",
"$. c #947B35",
"%. c #86794A",
"&. c #807573",
"*. c #847C7B",
"=. c #817977",
"-. c #817B6B",
";. c #1C891A",
":. c #17892A",
">. c #179030",
",. c #2A8739",
"<. c #249937",
"1. c #35953A",
"2. c #2B8A2E",
"3. c #62843A",
"4. c #1C945F",
"5. c #1F8F5D",
"6. c #3A8847",
"7. c #3B9549",
"8. c #269D56",
"9. c #21995A",
"0. c #2A9C5A",
"q. c #308B53",
"w. c #2EA44E",
"e. c #2DA140",
"r. c #30A54C",
"t. c #34A949",
"y. c #3BAC4C",
"u. c #2BA052",
"i. c #2DA059",
"p. c #36A755",
"a. c #1E9561",
"s. c #299B64",
"d. c #369B69",
"f. c #319066",
"g. c #38A366",
"h. c #3BA271",
"j. c #43974D",
"k. c #4C8957",
"l. c #489957",
"z. c #549857",
"x. c #508750",
"c. c #67865A",
"v. c #759153",
"b. c #44AF59",
"n. c #49A555",
"m. c #54A35B",
"M. c #57A75B",
"N. c #49B354",
"B. c #4FB658",
"V. c #45B05A",
"C. c #54B85C",
"Z. c #49A74E",
"A. c #5C9663",
"S. c #4F966C",
"D. c #688769",
"F. c #75866A",
"G. c #6A996B",
"H. c #768975",
"J. c #6C9874",
"K. c #789777",
"L. c #748F72",
"P. c #47AC65",
"I. c #59A967",
"U. c #5CBD61",
"Y. c #57B567",
"T. c #47A876",
"R. c #56AB76",
"E. c #54B46D",
"W. c #65B96B",
"Q. c #7AB16D",
"!. c #69A876",
"~. c #75A978",
"^. c #68B576",
"/. c #79B676",
"(. c #69AB6C",
"). c #60A15E",
"_. c #6EC66F",
"`. c #65C16A",
"'. c #70C76D",
"]. c #77CB71",
"[. c #7AC77A",
"{. c #6CC274",
"}. c #988837",
"|. c #8F8E35",
" X c #AC992B",
".X c #D1B516",
"XX c #D3BB3B",
"oX c #E8BC1B",
"OX c #F2CE14",
"+X c #EED031",
"@X c #EED11D",
"#X c #938F55",
"$X c #AA9447",
"%X c #B2AA54",
"&X c #85867B",
"*X c #8A9673",
"=X c #86B87A",
"-X c #8BA974",
";X c #A5AE63",
":X c #D1B850",
">X c #CAB065",
",X c #89C87B",
"<X c #84D179",
"1X c #88D37E",
"2X c #97C07C",
"3X c #B2C566",
"4X c #D2C84F",
"5X c #F1D34A",
"6X c #FDE557",
"7X c #CFCD6F",
"8X c #ECD76A",
"9X c #FEE769",
"0X c #FAE778",
"qX c #739386",
"wX c #57AA82",
"eX c #7AA884",
"rX c #7BB883",
"tX c #68B186",
"yX c #589F80",
"uX c #7BC183",
"iX c #8B8484",
"pX c #8C8886",
"aX c #958D8C",
"sX c #998E8D",
"dX c #918684",
"fX c #869A84",
"gX c #9D9492",
"hX c #9B9C94",
"jX c #969390",
"kX c #A19795",
"lX c #A59D9C",
"zX c #A89E9E",
"xX c #86A688",
"cX c #88B788",
"vX c #97A796",
"bX c #93AE91",
"nX c #A3A796",
"mX c #AEB695",
"MX c #9BAFA4",
"NX c #AEA5A5",
"BX c #AAABA4",
"VX c #B3AAAA",
"CX c #B0A8A7",
"ZX c #BAB0B0",
"AX c #ADB9A8",
"SX c #87CB88",
"DX c #97C98A",
"FX c #8DD483",
"GX c #96D888",
"HX c #9ACB94",
"JX c #AACF91",
"KX c #D9D989",
"LX c #E2DD91",
/* pixels */
"                                                            ZXZXZXZXZXZX                                                        ",
"                                                            zXNXNXNXNXNX                                                        ",
"                                        BXMXxXxXeXxXfX&X} ! iXsXaXaXaXgXNXkX^ N N M                                             ",
"                                      BXMXbXvXMXAXMXfX&X&XH O.iXiXiXiXaXNXkX^ B G J                                             ",
"                            ZXkX^ H pXMXvXhXpXgXCXlX . .&X| O.iXiXiXiXaXNXkX^ G | =.&XaXNXkX^ M                                 ",
"                            NXgX&. .vXxXhXiXiXaXlXgX&. .H.+.O.iXiXiXiXaXgXiXK H O.iXiXaXNXkX^ M                                 ",
"                    M H O.pXaXgXgXaXK.*XO.O.*.pXaXgXgXsXL.o.O.iXiXiXiX*. .J Z H O.iXiXaXNXkX^ N M H O.iX                        ",
"                    M G X.*.iXaXlXnXJ.K.L [ O.*.iXaXNXnXL.[ X.*.*.*.*.X.G N G [ *.pXaXgXgXiXK B G [ *.pX                        ",
"                M M M Z [ O.*.pXaXhXJ.o.B H [ O.*.sXNXCXK.G [ | | | | [ Z G | *.iXaXlXgX&.K Z G | *.iXaXNXZX                    ",
"                } K Z Z H [ O.*.iXhXK.+.Z Z H [ O.pXvXvXK.I E E E E E T S K =.pXaXgXgXdX .H H [ *.iXiXaXNXCX                    ",
"            iXaXgXiXK N Z H [ O.*.vXfXjXK N Z H [ ..G.rX(.7.j.j.j.j.j.k.T | *.aXlXgX&.} X.O.O.*.&XiXiXaXNXlX .M                 ",
"            &XaXlXgX .J ! ! ! } *.vXvXnX( P P I ..G./.cXW.B.B.B.B.B.B.M.G.H.L.K.bXfX~ G X.*.iXpXaXaXaXgXgXdX .!                 ",
"        M J =.pXaXaX*.*.sXdX! K =.vXfXfXz.7.7.z./.DXHXbX1X<X<X<X<X<X<X<X,X=XI.m.M.z.I Z [ O.*.aXlXNXNXgX&. .X.&XzXZX            ",
"        N G X.*.*.*.iXaXNXhX..T D.xXvXxXI.B.B.U.].GXbXHX<X<X<X<X<X<X<X<X<X].U.B.B.m.c.) ( ..pXgXgXkXkXdX .[ *.aXlXNX            ",
"        N Z [ | | O.*.aXNXvXA.j.l.rXbXDX1X<X<X].U.[.bX{.B.B.B.B.B.B.B.B.B.U.].<X<X,X=XQ.m.A.vXgX&.^ ^  .X.*.iXpXaXgXNXZX        ",
"        M Z H K K [ O.iXsXfXm.y.C./.cX1X<X<X<X_.B.~.rXp.w.w.w.w.w.w.w.w.w.b._.<X<X<X<X].U.W.cXfX( A Z K =.iXiXiXiXaXgXkX        ",
"    M M M N Z Z Z H [ | } ( j.N.].=XcXC.B.B.B.V.T.J.tX9.9.9.9.9.9.9.9.9.9.i.b.B.B.B.B.U.].].W.m.j.x.T } *.pXpXiXiX*. .^         ",
"    N N N B G K ! ! ! ! ~ c.m.U.<X=XrXw.w.w.u.u.R.J.T.9.9.9.9.9.9.9.9.9.9.8.u.w.w.w.w.b._.].U.B.B.m...| *.iXiXiX*.| G N         ",
"    N N N G | *.sXdX! ~ *X,X<X]._.~.tX9.9.s.R.uX2X=XP.r.w.w.w.w.w.w.w.w.w.u.8.9.9.9.9.i.b.U.].<X<X/.F.| *.iXiX*.[ G B N         ",
"    N N Z K O.aXlXgX&.F./.<X<X].{.!.R.4.0.rXJX3X7X7XJXW.B.B.B.B.B.B.B.B.B.b.i.9.9.9.4.9.u.b._.<X<X=XK.H.*.*.=.| G B G !         ",
"    N Z H } *.pXaXgXgXfX(.C.C.rXz.l.T.4.P.JX7X9X9X0XKXJX1X<X<X<X<X<X<X<X<X_.b.w.w.u.9.4.9.i.b.B.B.W.=X-XH.} K G B G | iXzXZX    ",
"    N Z K | O.*.iXaXlXbXM.t.p.tXl.j.T.0.W.KX0X5X5X6X8XLXGX<X<X<X<X<X<X<X<X].U.B.B.b.i.9.4.9.u.r.t.N.'./...K H H H [ *.aXNXZX    ",
"    N Z K } | O.*.pXaXK.m.r.i.tX6.l.P.V.FXKXKX X5X5X6X8X1XC.C.C.B.B.B.B.C.U.].<X<X_.b.u.9.4.9.8.w.y.N.z.I H  .O.O.*.&XaXNXZX    ",
"    J H K K K [ X.O.O.D.l.u.8.R.b l.eXcXGXLXKX$X4X6X5X8X3XQ.^.P.w.w.w.r.y.C.'.<X<X].U.b.i.9.9.8.u.r.t.7.I K =.iXiXiXiXaXgXkX    ",
"iX&X=. .H Z Z Z G H H T q.8.u.E.6.z.j c.SXmXmX%X4X+X+X5X%Xz I qXT.9.9.8.r.B.N.B.B.U.]._.b.w.w.u.8.8.r.j.E } *.iXiXiXiX*. .^     ",
"*.*.iX*.[ G B N N V C n 5.9.r.^.U ).) -X/.d h $. X@X+X+X:Xl G.wXh.4.4.9.u.p.p.r.t.N.'.].U.N.y.w.9.9.u.7.k...+.*.=.O.O.X. . .    ",
"| O.*.iX*.| G N N C n 5.5.9.P.G.t q # ) (.F g $. XoXOX@XXX#Xh.s.s.4.4.4.9.0.h.8.r.y.N.U.].'.N.w.9.4.9.0.7.k...} K H H  .dXlXCXZX",
"K [ O.*.iX*. .^ ^ E f.4.9.i.^.D.P 0 - T I.*X#X}.+XOXOX@X.Xl *X~.!.s.9.9.4.a.T.0.u.w.w.b._.].U.b.i.9.4.9.8.7.E K H H H  .gXCXVXZX",
"Z H [ O.*.aXgXkXkXqXd.4.u.V.SXE I T A I !.v.%.}.XX@XOXOX.X X:X%Xv.Q.E.u.9.a.T.d.9.9.9.i.b.U.]._.b.8.4.4.9.q.Y H  .O.O.*.aXgXCXZX",
"N Z H [ O.pXlXCXVXvXT.0.Y.[.J.( K.c.) s k _ l $X5X@X@X@X+X6X9X0X7X#XF.W.i.0.T.h.4.4.4.9.w.N.'.].U.b.0.9.4.q.Y K =.iXiXiXiXaXgXkX",
"N N Z H [ O.pXgXCXvXI.Y.cXT I F.-X-Xv.v.k k F l $X:X6X6X6X9X9X8X8X%Xf cXC.R.R.s.4.4.4.9.w.y.N.U.]._.b.8.9.f.E | *.iXiXiXiX*. .^ ",
"N N N Z H [ X.*.sXfXm.[.H.T T P Q 3.#X;Xv.Q I d g }.8X9X9X6X8X4X7X$X: ) cX^.g.9.4.4.4.9.u.r.t.B.<X<XB.w.9.f.] | *.iXiXiX*.| G N ",
"N N N N Z Z G J ! ( j.SXMXqX@.~ T I k v.v.Q T S p g $X8X8X8X>X#.#.g % A H.SXb.u.9.4.4.4.9.8.r.B.<X<XB.w.9.f.] | *.iXiX*.[ G B N ",
"Z Z G H H J ! K Z I z.SXMXjXpX+.@.' s k k Q ..D a p l $X%X}.g % % % - s m cX`.b.0.9.4.4.4.9.w.N.'.].U.b.i.q.E [ X.O.O.O. .^ ^ ^ ",
"K [ X.O.O.*.sXiXK ~ Q.FXeXL.H.&X@.{ A C C T T D a > : % % . . . . % p a 9 H.SX_.b.u.9.4.4.9.w.y.N.U.]._.b.7.I Z G H H  .dXkXkXkX",
"K } *.iXiXaXlXgX&.F.2XFXG.P T T T { A m C T S T D m * . X . . . % % > , - T SX].U.b.i.9.4.9.u.r.t.B.<X<XB.7.I Z G H H  .gXCXVXZX",
"Z K =.iXiXpXaXgXgXnXHXFXA.U ( m = m D D C ' T S { S D m 9 # # % > f B a & = J.`.]._.b.u.0.4.9.8.r.B.<X<XB.j.E [ X.O.O.*.aXgXCXZX",
"N G X.*.iXiXiXaXNXAXJXFXG.U E m = & 9 D c Y { S { { ` S 9 + * d F / A & # 9 ] [.FX1XC.^.T.s.a.9.w.B.<X<XB.j.E | *.iXiXiXiXaXNXZX",
"N Z [ O.*.iXiXaXNXAXJXGXG.P m x = ; - a 6 6 C D [ | ` ` m * , d * o o X + m A T K.DX[.(.R.wXT.9.w.B.<X<XC.j.( | *.iXiXiXiXaXNXZX",
"N Z K | O.=.*.iXsXnXHXHXK.T D m = - # o $ 5 P ..Z [ S { T - # o o O O @ $ 9 C s c.z.M.1.,.6.S.T.w.C.1XFXW.l.E [ O.*.*.*.=.*.sXkX",
"N Z K [ K K } | } F.JXmX-.^ J M m * # # + 6 D.bX~ a 9 q 4 7 < 7 k i 1 @ $ P A.l.1.<.;.;.<.1.w l.W./.uX!.!.m.I H [ | | } K J ! ^ ",
"N Z H H Z Z H H Z ) JX&XF %.%.F , , * & + $ U D._ 6 5 q e ,.2.1.j.i 2 r x.~.^.,.:.:.;.;.;.2.3 2.7.7.j.l.^.M.T J K K K ! ! ^ ^ ^ ",
"N N Z Z N N Z Z N ) mXF $X:X>Xl d 9 & & + @ 7 8 c._ Q y w :.;.;.<.<.t.y.W.W.7.:.:.:.3 2 2 2.,.7.l.I.{.I.^.I.D. .H Z Z ! dXkXkXkX",
"H H H J ! ^ ^ K Z o.nXl :X5X4X}.f 9 = = + X @ 8 _ _ j r e w :.>.:.>.<.<.Z.Z.7.e.:.,.4 < r I.E.E.^.C.<XSX~.I.L.*.[ H H  .gXCXVXZX",
"O.O.O.*.sXkXkXiXJ o.*X#.+XoX@XXXg a = & & + X 6 A d 6 6 q q y M.B.>.<.<.1.Z.B.7.q.u U L.~.tXtXtXE.{.SX~.c.^.L.iX*.O.O.*.aXgXCXZX",
"*.*.iXaXlXNXNXgX&.&X&X#.+XOXOX+X#.a * & & & X $ $ P 0 + + o @ U j.:.>.>.1.Z.B.7.e @ 0 L.J.D.J.K.c.0 v R R (.F.*.*.*.iXiX*.*.sXkX",
"| O.*.pXaXaXsXgXkXnX*X$.XXoXOX+X#.> - & # & $ 8 6 x.W - - - $ j ,.,.2.2 ,.m.l.,.r < 7 7 < 4 t j $ % P v v !...| | O.*.*.[ J ! ^ ",
"[ | O.*.iX*.=.*.sXnX-X#.5XOXOX+X#.* # # # P c.P 0 0 A.W * # - 6 r u y r y ).z.2 r U 8 < < 2 7 1 1 _ k 8 C K.E K K [ X.| G Z K ^ ",
"[ } | O.*.*.[ H ! ..-Xg XX+XOXXX#.* ; # # P A.v q q U U s 6 a 6 $ j s 0 U G.U < W F.j t r r r < l }.l z p K.E Z Z Z G G B K iXkX",
"K [ [ | O.| G M M P ~.g }.5X+X:Xg * # . + v v 0 5 5 6 5 $ $ $ $ O 8 s 8 P G.U < c.*XD.W u y r O l }.|.#.: o...H H J ! K Z K iXkX",
"Z G [ [ K G B M M P A.) g >X7X>Xf # + 5 q v v 5 5 6 6 $ 5 5 5 7 < 7 t t k.G.x.r k A.G.~.D.D.W k g >X%Xl p H.H.O.O.*.sXiXK Z K ^ ",
"N Z L L Z Z K ! [ ( l.~.f %.>X#X> + 0 R v v D.P P C 8 < 7 7 7 r 4 b y b !.k.r y u j.z.~.D...J./.l #X#Xf p qXH.iXiXaXlXgX&.K Z N ",
"N N Z Z N K iXkXkXfXS.R.F.F  .F 6 5 R W R Y P C P q 4 e w :.w w y u e n k.7 2 6.6.6.6.x.t s L.SXQ.p p > ..yXH.iXiXpXaXgXgXiXK N ",
"N B G H H  .gXCXVXvXT.9.R...V { ..P Y R E Y C Y I n 6.q.>.:.:.w ,.t r U U 8 7 x.l.,.y 7 1 s ..SXY.A.W D.T.d.H.*.iXiXiXaXlXgX&.^ ",
"N G | O.O.*.aXgXCXvXT.4.s.R.D.{ ! S T &X&XX. .~ T R b ,.<.>.<.1.k k v.v.Q C I c.z.6.b q 5 s o.^.i.s.d.g.u.7...O.*.iXiXpXaXgXgXkX",
"N H O.iXiXiXiXaXlXxXT.9.wXqX..~ ! G G L | aXX.Z T I t y n.b.e.2.8 l 3X|.l d A D.A.k.b R 0 s -XP.9.4.9.i.b.m.( [ O.*.iXiX*.*.sXkX",
"N H O.iXiXiXiXpXaXK.l.u.tX@.T S H G S D D S S m S T P y 6.,.w 2 8 3.3X|.|.f M F.(.^.rX~.D.~.Y.r.9.4.u.b._.Q.) H [ O.*.*.[ J ! ^ ",
"N G | O.O.O.O.O.O.D.l.r.g.T.!.K...S D D D D S [ T I P b u y e i 8 l 4X%X%Xf a K.W.W.[.[.E.p.r.u.8.8.r.B.<X=X) Z H [ X.X. .^ ^ ^ ",
"N B G H H H H H H T j.t.r.u.0.d.T.!.D.' ' { [ S S C P R t u 7 j Q l 4X4X#Xd V bXFX].U.b.i.9.9.8.u.r.t.B.<X=X) N Z Z G  .dXkXkXkX",
"H H H H H J ! K Z I z.N.y.r.8.9.s.h.R.J.' T T T S C c W R 0 Q (.Q.c.|.%X%.d ~ HX<X_.b.8.9.4.9.8.r.y.N.U.].Q.) Z G H H  .gXCXVXZX",
"O.O.O.O.O.*.sXiXK ~ Q.'.N.t.r.u.9.s.h.R.!.~.J.K.K.~.~.~.D.c xXFXFXDX_ g f d K.W.B.V.i.9.4.9.u.r.t.N.'.].U.m.( [ X.O.O.*.aXgXCXZX",
"*.*.*.*.iXaXlXsX! ~ Q.].U.B.B.b.0.9.s.d.P.P.P.W.SXDXFXGXHXfXHX<X<X1XDXo.~ *X^.r.w.u.9.4.9.i.b.B.B.U.]._.b.7.E [ O.*.iXiXiXaXgXkX",
"| | | O.*.pXaX*.J I z.U.].<X<X_.b.u.4.s.s.s.s.g.Y.U.U.C.U.U.C.B.B.B.C.W./.Y.i.9.9.9.4.9.u.b._.<X<X].U.b.i.q.Y H [ O.*.iXiX*. .^ ",
"[ [ [ | *.iXiXO.H P 7.B.<XGXGX<XB.w.9.4.4.4.4.9.u.t.t.t.t.t.t.t.t.t.t.t.y.r.9.4.4.4.4.9.w.B.<XGXGX<XB.w.9.q.C Z K | *.iXiXO.H N "
};
