/* XPM */
static char *_e51228f857b4f0385d27c0db99cbb62w9D4wdngSkDPARbe[] = {
/* columns rows colors chars-per-pixel */
"64 64 242 2 ",
"   c #7ba525",
".  c #14130C",
"X  c #171C0E",
"o  c #1C1C15",
"O  c #141412",
"+  c #090E09",
"@  c #0C350B",
"#  c #1A2815",
"$  c #1B3919",
"%  c #1A2B0E",
"&  c #23231C",
"*  c #2D2B1C",
"=  c #282617",
"-  c #25341D",
";  c #322D1A",
":  c #262521",
">  c #2B2B24",
",  c #2E2D29",
"<  c #282922",
"1  c #322D20",
"2  c #2B3724",
"3  c #34322B",
"4  c #383929",
"5  c #363531",
"6  c #3B3B35",
"7  c #3D3D3A",
"8  c #373932",
"9  c #443D1B",
"0  c #443E2C",
"q  c #403E35",
"w  c #184818",
"e  c #0D5B13",
"r  c #17571B",
"t  c #075E0E",
"y  c #146E1C",
"u  c #15621B",
"i  c #0B7A1C",
"p  c #13741D",
"a  c #0A6B15",
"s  c #1E5F22",
"d  c #294927",
"f  c #35492D",
"g  c #2A572A",
"h  c #37512D",
"j  c #394936",
"k  c #3A5736",
"l  c #2F5F30",
"z  c #177624",
"x  c #1B6322",
"c  c #256829",
"v  c #257528",
"b  c #2F6933",
"n  c #366838",
"m  c #2C7734",
"M  c #34773B",
"N  c #3F7F22",
"B  c #2A5D1E",
"V  c #52491C",
"C  c #7E711C",
"Z  c #584D27",
"A  c #43413C",
"S  c #474538",
"D  c #524B3B",
"F  c #455538",
"G  c #5C553E",
"H  c #665928",
"J  c #615939",
"K  c #45743A",
"L  c #796938",
"P  c #756930",
"I  c #67571E",
"U  c #3F5E41",
"Y  c #3E7544",
"T  c #3F6B41",
"R  c #454442",
"E  c #484645",
"W  c #4A4B45",
"Q  c #4D4C4B",
"!  c #454C42",
"~  c #514F4B",
"^  c #534E42",
"/  c #4D5B4B",
"(  c #495646",
")  c #53524E",
"_  c #585648",
"`  c #555453",
"'  c #585755",
"]  c #5B5956",
"[  c #5C5B5B",
"{  c #565A56",
"}  c #4F5650",
"|  c #625F5D",
" . c #625D52",
".. c #675A43",
"X. c #476547",
"o. c #556749",
"O. c #477748",
"+. c #55754D",
"@. c #586657",
"#. c #577956",
"$. c #68674A",
"%. c #726747",
"&. c #66665B",
"*. c #736D57",
"=. c #63735C",
"-. c #7C7558",
";. c #7D734B",
":. c #5F5E61",
">. c #605F60",
",. c #636364",
"<. c #6B6B6B",
"1. c #676966",
"2. c #777879",
"3. c #73746A",
"4. c #8E741A",
"5. c #89782A",
"6. c #967E28",
"7. c #867634",
"8. c #897433",
"9. c #857949",
"0. c #83775A",
"q. c #877F7B",
"w. c #826F6C",
"e. c #0A861C",
"r. c #04961D",
"t. c #0D921D",
"y. c #158E1E",
"u. c #0B8B21",
"i. c #0B8B24",
"p. c #1C8229",
"a. c #168827",
"s. c #0B9424",
"d. c #0A9A23",
"f. c #15982B",
"g. c #1C9B32",
"h. c #25882C",
"j. c #288836",
"k. c #33893E",
"l. c #2B9B3C",
"z. c #269737",
"x. c #2D8D2A",
"c. c #1EA335",
"v. c #2AA23E",
"b. c #53841E",
"n. c #448437",
"m. c #509337",
"M. c #669033",
"N. c #71A92F",
"B. c #3A8743",
"V. c #339B41",
"C. c #3D9844",
"Z. c #3E9C4A",
"A. c #3C9443",
"S. c #2DA341",
"D. c #38A448",
"F. c #448749",
"G. c #429D4B",
"H. c #459747",
"J. c #598C58",
"K. c #499C50",
"L. c #469A52",
"P. c #589A56",
"I. c #548D4E",
"U. c #67985C",
"Y. c #6E8A55",
"T. c #49A554",
"R. c #47A854",
"E. c #5DA25C",
"W. c #55A459",
"Q. c #5EA44A",
"!. c #6DA94C",
"~. c #5D8961",
"^. c #698B67",
"/. c #689867",
"(. c #788A78",
"). c #789B74",
"_. c #7E966C",
"`. c #5AA963",
"'. c #5CB76B",
"]. c #61A764",
"[. c #6DB174",
"{. c #B9971A",
"}. c #958639",
"|. c #9A9028",
" X c #B39935",
".X c #A89430",
"XX c #96AA34",
"oX c #8BB23A",
"OX c #BCA22E",
"+X c #94981D",
"@X c #D4B315",
"#X c #EEBE0A",
"$X c #D6B733",
"%X c #CDB42C",
"&X c #E0BE27",
"*X c #B8C138",
"=X c #F6C403",
"-X c #F6C709",
";X c #FED707",
":X c #EBC414",
">X c #F3C917",
",X c #F8D216",
"<X c #DBC035",
"1X c #ECC922",
"2X c #E6C536",
"3X c #F9D936",
"4X c #FFDD25",
"5X c #FFE035",
"6X c #96874A",
"7X c #8C835F",
"8X c #AB994E",
"9X c #BAAF43",
"0X c #85937D",
"qX c #868576",
"wX c #A79D6C",
"eX c #85A075",
"rX c #B2A56C",
"tX c #9AB85B",
"yX c #CCB346",
"uX c #CCB861",
"iX c #B2C75E",
"pX c #D6C352",
"aX c #F8DA49",
"sX c #EACF4E",
"dX c #FFE147",
"fX c #FEE254",
"gX c #FEE35C",
"hX c #E9D568",
"jX c #FDE464",
"kX c #FDE56A",
"lX c #FFE974",
"zX c #FDE673",
"xX c #D9C469",
"cX c #7E8282",
"vX c #838487",
"bX c #929390",
"nX c #88BB8B",
"mX c #96A589",
"MX c #9FA2A5",
"NX c #AAA89B",
"BX c #85C08A",
"VX c #AFC5B0",
/* pixels */
"                                                                                                                                ",
"                                                                                                                                ",
"                                          nX].E.].].].E.                                                                        ",
"                                        nX`.W.E.E.E.P.P.P.                                                                      ",
"                                      BX].              U.                                                                      ",
"                                      '.                P.                                                                      ",
"                                    S.W.                H.                                                                      ",
"                                    D.                  l.                                                                      ",
"                                    D.                  K.                                                                      ",
"                                    G.                VX[.                                                                      ",
"                                    G.                VX                                                                        ",
"                                    G.                nX                                                                        ",
"                                  z.Z.              E.E.                                                                        ",
"                                  V.C.              mX                                                                          ",
"                                  C.G.              _.                                                                          ",
"                                  C.m.            Y.U.                                                                          ",
"                                  H.m.            C.                                                                            ",
"                                  H.              H.                                                                            ",
"                                  K.            iXtX                                                                            ",
"                                  C.        zXjXjXkXzX                                                                          ",
"                                z.h.      kXjXfXfXgXkX                                                                          ",
"                              G.L.x.      gXjXsXaXfXgXjX                                                                        ",
"                              Z.z.h.      fXhXwXsXdXfXgX                  <.                                                    ",
"                                a.m 1.,.  aXhXwX2X5XdXfXpX                                                                      ",
"                                a.c q 7   yXuXwX1X4X3XdXyXZ D ]                                                                 ",
"                                a.d > 3   D _ 3..X:X;X4X$XH                                                                     ",
"                              M z 8 : <   S D 0..X#X;X;X&X;.                                                                    ",
"                              =.T W 5 &   7.}.6X:X;X;X;X@XH -.&.                                                                ",
"                              @.@.&.' A %.8.6X}.-X;X;X;X@XOXpX8X*.3.                                                            ",
"                            X.M.!.^.=.` ..L L }.1X>X,X,X3XfXkXkXxX7X)                                                           ",
"                        ` ( M M.XXXX!./.=.@. .%. X2XfXjXzXlXkXfXaX9XS                                                           ",
"                        <.[ @.X.K M.XXoX!.+.[ _ G 8.sXlXlXgX3X2X2X X4 A                                                         ",
"                        MXcX<.1.,.X.K N.N.O.1.' Q ^  XaXfX3X$X7.6.H > ^  .                                                      ",
"                        MXbXvX2.<.,.{ @.O.O.<.] R A P OXOX|.H 1 = = 1 ^ W ]                                                     ",
"                        (.(.vXvX2.1.` ` { @.,.` R 6 4 = = X . . O * 0 S 7 '                                                     ",
"                        j.O.,.[ ,.1.` W U / [ :.] W 6 o . . . O & < 8 A 5 Q                                                     ",
"                        f.n.=.Q 7 R ' Q n m.o.[ 1.[ ~ Q 8 = & , 4 D ..q & 7 )                                                   ",
"                        h.n.$.R 6 > R ` ! K +.{ 1.<.[ ' Q : 1 Z H P H 1 & f k                                                   ",
"                        O./ W 7 3 & < R 7 j } ` 1.<.[ ] ` , V Z 9 ; X o < ! ( ( o.#.  G.T.S.                                    ",
"                        cX1.Q R 6 , & # $ w / 1.] ,.,.1.[ 6 = X % % @ # : W Q ( Y.P.T.l.f.f.a.                                  ",
"                      MX2.<.[ Q R 5 > & @ r ^.mX&.A 8 j f g d h $.B t $ > o.~.L.v.f.x.t.y.m.p.z.`.W.T.T.T.                      ",
"                      2.$.9.-.` R 6 , : # w M ^.$.6 f u p s.g.A.I.v p c O.[.'.d.r.t.N y.t.y.e.u.g.l.l.l.D.                      ",
"                    bX&..X2X%X*.E 7 3 , & @ a v -.0.+.p.e.u.r.d.g.z.V.T.[.'.S.r.r.r.p u i s.s.z.V.D.D.D.R.                      ",
"                    2.%.&X>X-X8X) A 5 , : X @ h ;.%.k z i a.s.s.d.d.f.c.D.R.R.g.r.h.h 2 f k.S.Z.      l.T.                      ",
"                    <.7.>X#X-X$X .R 8 , : o . 4 G G f f g l n /.`.f.g.g.l.D.`.v.u.U &.0XbXmX          l.B.                      ",
"                    [ 5.:X#X=X:X;.R 5 , : = o > 2 = = o o & & +.L.a.f.g.k./.`.g.i % j ^.^.J.^.).o.3 b k.g                       ",
"                    [ 5.:X=X=X:X9.A 3 < & = # g g 4 3 1 * 1 1 F j.a.u.v O.W.T.z.z w g d r u m X.> * v n R                       ",
"                    [ 9.1X-X=X:X9.7 , : & o # c c B 4 * = * 4 j c h.m h o.R.L.g k O.g w e t y d 9 C x.k ` >.                    ",
"                    [ $.@X-X=X#X9.5 : & o . + e a e @ + . * S 0 - n X.D o.T.O.- =.(.n b c y y $ C +Xb.H W <.                    ",
"                      W |.,X-X$X$., & o o X # d d d w $ # - 2 2 # k F S o.T.Y d ^.0X^.J.v v c $ 4..X|.4.A ,.                    ",
"                      ~ J %XaXrX~ : & - r c ! 7 7 6 6 2 $ w d f d l M n O.T.F.c O./.).).J.J.+.2 I %X@X4.A [                     ",
"                      [ W *.NXq.7 & F n.i.Y 2.[ ' ` E 2 l c s x a p.m O.].K.b M m B.P.eXqX~.@.  4 6.{.Z A '                     ",
"                        ' [ <.[ 6 d O.F.j.M X.( / ( h x p.a.i i u.M R Y Z.h f B.V.l.z.F.( W W     4 0 6 E                       ",
"                          Q Q @.#./ { 1.,.@.X.n M j.j.f.s.i.i.e.a.@.A B.B.A / H.Z.z.a.u 8 Q [       , 5                         ",
"                            R @.1.[ | q.qX2.<.,.@.O.k.f.f.g.g.z.B._ }.Q.O.] [ ~.K.l.p.c d ~ 1.                                  ",
"                          <.,.&.&.[ ' | 3.bXw.] ,.,./ j.D.R.S.h.n 7.%X!.P ` [ ^.I.b r b h Q 1.                                  ",
"                        <.[ ] ] [ [ ` ` Q ' ` ` [ ,.[ M l.f.e.y l 6.*XoX6.D Q ,.      $ f Q                                     ",
"                              ) Q Q Q Q ` [ [ ,.| [ } M j.m z y g 5.pX9X{.G E [                                                 ",
"                                    6 Q [ ,.| [ ] ` X.k.n ) g w $ H <X>X{.^ Q |                                                 ",
"                                      7 ~ ) Q W R E ! k.B.j 6     S }.@X5.~ `                                                   ",
"                                            O O + O : b F.j )       ^ G ^ ~ ]                                                   ",
"                                                        O./           Q ~ )                                                     ",
"                                                                                                                                ",
"                                                                                                                                "
};
