/* XPM */
static char *result[] = {
/* columns rows colors chars-per-pixel */
"64 64 49 1 ",
"  c #8E553B",
". c #8E593A",
"X c #90563B",
"o c #965B3D",
"O c #995D3E",
"+ c #8A6536",
"@ c #8A6935",
"# c #8C6238",
"$ c #926739",
"% c #9D613F",
"& c #926839",
"* c #867731",
"= c #867831",
"- c #A2663F",
"; c #A2693F",
": c #9D5E40",
"> c #9E6343",
", c #A36642",
"< c #A56942",
"1 c #AB6C43",
"2 c #A86D48",
"3 c #B06F44",
"4 c #AF7045",
"5 c #AE764E",
"6 c #B37245",
"7 c #B37549",
"8 c #B6794C",
"9 c #BB7B4C",
"0 c #B97F54",
"q c #7F932A",
"w c #7E9829",
"e c #7BA525",
"r c #7AA824",
"t c #85832F",
"y c #80922A",
"u c #BA8154",
"i c #C28452",
"p c #C68A57",
"a c #C98C57",
"s c #C78D5A",
"d c #CA8E5A",
"f c #CC915C",
"g c #D1965F",
"h c #CD9560",
"j c #D29760",
"k c #D49A61",
"l c #D89F65",
"z c #DAA167",
"x c #DCA368",
/* pixels */
"eeeeeeeeeeeeeeeeeeeeeeeeeeeeeeeeeeeeeeeeeeeeeeeeeeeeeeeeeeeeeeee",
"eeeeeeeeeeeeeeeeeeeeeeeeeeeeeeeeeeeeeeeeeeeeeeeeeeeeeeeeeeeeeeee",
"eeeeeeeeeeeeeeeeeeeeeeeeeeeeeeeeeeeeeeeeeeeeeeeeeeeeeeweeeeeeeee",
"eeeeeeeeeeeeeeeeeeeeeeeeeeeeeeeeeeereeeeeeeeeeeeeeeeerreeeeeeeee",
"eeeeeeeeeeeeeeeeeeeeeeeeeeeereeeeerrreeeeeeeeeeeeeeeeeeeeeeeeeee",
"eeeeeeeeeeeeeeeeeeeeeeeerwqqqqqqqqqqqweeeeeeeeeeeeeeeeeeeeeeeeee",
"eeeeeeeeeeeeeweeeeeeeeeerw=@@@@++++++*weeeeeeeeeeeeeeeeeeweeeeee",
"eeeeeeeeeeeeeeeeeeeeeeeewt&OO::,>>:::$tweeeeeeeeeeeeeeeerreeeeee",
"eeeeeeeeeeeeeeeeeeeeeerw*%<316ifsu711-$*yrrreeeeeeeeeeeeeeeeeeee",
"eeeeeeeeeeeeeeeeeeeeeewt$:169agxzh9763:$tyereeeeeeeeeeeeeeeeeeee",
"eeeeeeeeeeeeeeeeeeeerw*#-139akxxzgu6661-&=yreeeeeeeeeeeeeeeeeeee",
"eeeeeeeeeeeeeeeeeeeewt$,799ijlggzg966663-&tyeeeeeeeeeeeeeeeeeeee",
"eeeeeeeeeeeeeeeeeeew*$-6aggglgiigg9666661;&*yreeeeeereeeeeeeeeee",
"eeeeeeeeeeeeeeeeeewt$,7pkzzzxgiiffi9666671:$tyereeeerweeeeeeeeee",
"eeeeeeeeeeeeeeeeeq*$-7aklzzzllgai9fd9666663;&=yreeeeeeeeeeeeeeee",
"eeeeeeeeeeeeeeeeeq#O19gzzlzzxxgaiidd96366661%@yreeeeeeeeeeeeeeee",
"eeeeeeeeeeeeeeeery@o<9gzllllxgiidfi966666661O@qreeeeeeeeeeeeeeee",
"eeeeeeeeeeeeeeeewt$,7iklxlxlgaiidai96666661-o#tweeeeeeeeeeeeeeee",
"eeeeeeeeeeeeeeew=&;6aklxxlxgiiffiidd966671%oX.#=wreeeeeeeeeeeeee",
"eewreeeeeeeeeewt$:1ijljgkxxgiiafiifa966661%oX  #twweeeeeeeeeeeee",
"eeeeeeeeeeereq*$;339jkiigxxlgaiiddi97666661-o X.@*qreeeeeeeeeeee",
"eeeeeeeeeeeeey@O3669adiiaglllaiiddi;66666666%oXXX@yreeeeeeeeeeee",
"eeeeeeeeeeeeeq@O13368iddiiggiigaai6;666666661<o X#qereeeeeeeeeee",
"eeeeeeeeeeeeeq@o369969dgiifa99aa9;69666666111<oX @yeeeeeeeeeeeee",
"eeeeeeereeeery@o19aa969iffi969996666666661-OooX X@yrreeeeeeeeeee",
"eeeeeewreeeeyt&-3pkki816ss9666;96666636-1-X    X +tyeeeeeeeeeeee",
"eeeeeeeeeeeq*$-8akllki,>6976666669696--:ooXX X. ..#=yeeeeeeeeeee",
"eeeeeeeeeerq#O19dklllh5,<1116;;;;;-3;-:OOoOOX X  XX@yreeeeeeeeee",
"eeeeeeeeeeeq@o169ijzzlju,oooooOOoO::::--;33-o . XXX+yreeeeeeeeee",
"eeeeeeeeeerq@o169ikzzlki<oooOoOOoOO::-366633>o     @yrreeeeeeeee",
"eeeeeeeeeeeq@o<9ajlzzgp911<1111;--6;3;6666611<o  X @qrreeeeeeeee",
"eeeeeeeeeewt#,7iklgjlg969977669u99999999u9996<>oX  #tqeeeeeeewee",
"eeeeeeeery=$<7ajzgiijj99df9669agkgggggggggjp,:1<O  .#=wreeeeeeee",
"eeeeeeeeyt$:19gxzgiida99aa969ikxxxxxllxlxlg0,:-<OOXXX#tweeeeeeee",
"eeeeeeeq=&-139gzzljdi9769969aklxllxxlxlxxg6,2,:%<<o  ..*yeeeeeee",
"eeeeeeey@o199ikzzzzgi8669969agggllggllggf0,:,<::<-o XX+*yreeeeee",
"eeeeeery@O19dklzlxzlja99aa97999plgiijka9---3O:-1:OXX #tweeeeeeee",
"eeeeeery@o19dggggglxxj99aa966339adiida6-:1-3O:1-%oX  @yreeeeeeee",
"eeeeeery+O169999iigxxj96996636669igai6-:--:---::-<OX @yreeeeeeee",
"eeeeeewt&:166663-7agdp9666666666;9fa9-::;---6;::;<O  @yeeeeeeeee",
"eeeeeq=&<1333661:-692<6666666666669966;666;366;1>oXX @qreeeeeeee",
"eeeery@O17996663-O<-%O<1663;666666;9666666666963OoX X@tweeeeeeee",
"eeeeeq@O19da93661-OO<<O,33::36666996666666666;-:<<o   #=yrreeeee",
"eeeeeq@:7ifdi96663:%-<O%-----363--66666666666-::<-o   X#tweeeeee",
"eeereq+>pdiifd93631<%%<-O:--::6;1:666666666666-3%oX X.X.+=yeeeee",
"eeeerq@,dkiiddi96663%%-<oo--Oo1-::-;66666666669;%OooX  XX@yeeeee",
"eeeeeq+>dxgaiiga96663<-oXXooXXX---::;66666666666111<o X X+yreeee",
"eeeeeq+>dxxgiiddi96631-XX   XXXX11::6666666666667661o  XX@yeeeee",
"eeeerq+>szxljsiifa9;9;;3OXXXXXXXoO116666666666666661o    @qrreee",
"eeeeeq+>uklxxhiifai9669;:OOo:,OOOO<16666366666661166%oXXX+tqeeee",
"eeeerq@:5ikxzlgaiifai6666;---;6;1-O-336;66666661%-;66<o  .#*weee",
"eeeerq@.,7skzzxgiifdi9669666669698216iuu9976661-oO161-o X X@yeee",
"eeeerw@ o,7pkxxzgfiidd9666666669djffhhhhgd9661%o o13-oXXX X@yree",
"eeeewt.: X-7afdfgfiidd9666666--3ifshshfffi711,o.o%-1OoX   X@twee",
"eeew*...  X,78229iffi9766666:OO:>>>22>>><>%oOoXo-<OO<<oX  X.#=yr",
"rewt$:>>>>Xo,,%O-6dd9;66666--OOX.    ..      XoO1<%%<<OOX  XX@yr",
"ew*+,6uffu>.::>>o-78-O166666111-:            X-1-:<-O-<-o   X+qe",
"eq@:6pkxxs>  .;,oo--oO1666666761>.ooX    XooO%1;O:<<OO<<o X :+qr",
"eq+>pjlzxf>  .oooXXOXo;66666666611<<o.   o<11;%%-1O-1<>oXX   @qe",
"eq+2sxxzzf5>>>%oooOOO%36666666666771%oooO-1671%%<-:O<<o .X.X @qe",
"eq+>dxxxzlfffu7<;3;31136666666666666;3111166661<:%-1%XX.     @qe",
"rq@>uffklzzzkfi976666666666666666666666666666663-O-<>oX.XX.  @qe",
"rq@:%18igzzgiiff966666666666666666666666666666631-:-<,o  .   @qe",
"rq@  o;ufzzg99gg9666666636666666666666666666666661OO11:  X   @qr"
};
